<svg width="149" height="290" viewBox="0 0 149 290" fill="none" xmlns="http://www.w3.org/2000/svg">
<g opacity="0.33">
<path d="M123.844 34.0082L120.503 35.3768C116.743 37.1334 116.592 37.2009 114.376 38.4334C111.498 40.113 111.498 40.113 110.046 41.1001L109.04 41.7752C102.208 46.6208 96.2058 52.5438 91.2653 59.3144C88.2668 63.5917 85.7358 68.1799 83.7159 73L82.8885 75.0979C88.9155 60.5975 109.641 39.8881 123.894 33.9913" fill="white"/>
<path d="M149.298 29.4188L146.004 29.4906C142.737 29.6112 139.483 29.9729 136.269 30.573C135.832 30.6578 135.379 30.7595 134.909 30.8948C123.187 34.1441 103.016 50.8529 89.837 68.2259C83.7292 76.2929 80.2065 83.0764 79.3509 87.7006C78.9452 90.5726 78.5249 94.4215 78.3041 97.3102L78.2355 100.603C78.2324 95.1546 82.5652 86.0205 91.0859 74.7841C106.862 53.9887 131.008 33.9905 145.081 30.0644C146.458 29.6601 147.881 29.4375 149.314 29.4019" fill="white"/>
<path d="M173.169 33.6975L168.949 32.3053C166.637 31.6768 163.476 30.9231 161.106 30.4716C158.96 30.2139 156.785 30.4265 154.73 31.0948C138.852 35.5033 111.511 58.1415 93.6731 81.668C83.2256 95.5512 78.3171 106.564 79.3124 112.432C79.8131 114.797 80.5172 117.971 81.1438 120.311L82.5307 124.537C80.3672 118.544 85.6164 105.771 97.9409 89.5106C117.53 63.6997 147.488 38.8854 164.869 34.0118C168.421 33.0218 171.176 32.9507 173.135 33.6639" fill="white"/>
<path d="M194.401 46.0149C193.02 44.9389 191.219 43.4592 189.797 42.4422C188.047 41.2993 185.75 39.7613 183.917 38.6859C181.78 37.4593 178.57 37.3962 174.204 38.6146C155.731 43.6919 124.062 69.9905 103.376 97.2766C89.5937 115.442 84.1957 129.445 87.51 135.31C88.6227 137.093 90.0393 139.517 91.2696 141.216C92.3311 142.596 93.7046 144.489 94.8333 145.834C90.2765 140.392 95.6891 125.429 110.586 105.789C131.867 77.6347 164.576 50.6104 183.561 45.3389C188.7 43.9173 192.305 44.2241 194.409 46.0065" fill="white"/>
<path d="M210.421 65.2595C209.426 63.6609 208.145 61.5068 207.083 59.9588C206.021 58.4108 204.361 56.2489 203.106 54.7432C201.135 52.388 197.311 51.812 191.627 53.3606C172.642 58.6322 139.974 85.6985 118.652 113.811C103.101 134.328 97.8745 149.728 103.564 154.521C105.895 156.328 109.042 158.665 111.482 160.312L114.048 161.85C107.268 157.985 112.092 142.585 127.877 121.765C148.571 94.47 180.274 68.2219 198.705 63.1026C204.876 61.3849 208.785 62.2639 210.455 65.2258" fill="white"/>
<path d="M218.612 88.1451C218.137 85.99 217.551 83.0856 216.984 80.9558L215.411 76.0233C214.134 72.4967 210.318 71.306 203.877 73.0914C186.454 77.923 156.479 102.754 136.949 128.59C121.366 149.141 117.087 164.111 124.814 166.888C127.227 167.617 130.38 168.649 132.809 169.277L136.886 170.105C128.288 168.626 131.854 154.576 146.767 134.851C164.605 111.324 191.946 88.6691 207.824 84.2607C214.399 82.4245 217.956 84.0113 218.645 88.1282" fill="white"/>
<path d="M218.59 112.861C218.97 110.216 219.391 106.654 219.604 103.976L219.705 99.9586C219.703 95.2682 216.465 93.361 210.024 95.1127C195.977 99.0135 171.805 119.037 156.037 139.841C142.071 158.259 139.367 171.121 148.668 171.134C150.844 171.072 153.759 170.976 155.935 170.796C157.623 170.566 159.899 170.302 161.579 170.014C149.853 171.528 155.328 157.837 165.373 144.477C185.481 117.739 217.909 97.039 218.744 110.393C218.753 111.231 218.69 112.068 218.556 112.895" fill="white"/>
</g>
<path d="M110.384 44.1666C109.047 42.8264 104.064 45.6473 99.2528 50.4673C94.442 55.2872 91.6256 60.281 92.9622 61.6212C94.2988 62.9614 99.2823 60.1405 104.093 55.3205C108.904 50.5006 111.72 45.5068 110.384 44.1666Z" fill="white"/>
<path d="M88.1636 82.8709C100.557 79.2671 122.358 58.8257 129.821 43.8097C131.494 40.4391 136 29.8144 123.843 34.0074L120.502 35.376C118.16 36.3981 117.766 36.6259 114.375 38.4325C112.798 39.3273 112.638 39.4201 110.046 41.0993L109.039 41.7744C116.137 36.9987 118.86 37.3992 119.852 38.0547C125.128 41.6434 105.169 67.0843 90.8202 71.7265C90.5431 71.8027 90.182 71.879 89.9132 71.9298C87.0157 72.3969 83.9874 70.6326 89.9161 61.328C87.4745 65.0282 85.3844 68.9497 83.6731 73.0413L82.8458 75.1392C80.4644 81.3149 82.1683 84.5294 88.1636 82.8709Z" fill="white"/>
<path d="M89.9081 61.3037L91.2564 59.2892C90.7539 60.0197 90.3044 60.6912 89.9081 61.3037Z" fill="white"/>
<path d="M137.413 30.4021C137.044 30.4362 136.674 30.4872 136.279 30.5635L137.413 30.4021Z" fill="white"/>
<path d="M79.2375 88.7443L79.3779 87.6738C79.3121 88.0278 79.2652 88.3852 79.2375 88.7443Z" fill="white"/>
<path d="M87.942 105.407C101.99 101.506 126.153 81.4909 141.929 60.6955C155.887 42.2856 158.599 29.4317 149.307 29.4104L146.014 29.4822C143.128 29.581 140.253 29.8887 137.412 30.4031C146.375 29.4565 144.44 40.4146 132.3 56.4221C119.138 73.7783 98.9671 90.487 87.2369 93.7616C81.4012 95.3778 78.7672 93.3519 79.2196 88.7619C78.8472 91.4655 78.4928 94.7585 78.3134 97.3018L78.2447 100.595C78.263 105.251 81.4597 107.201 87.942 105.407Z" fill="white"/>
<path d="M94.0637 127.47C111.487 122.638 141.462 97.807 160.992 71.9709C176.575 51.42 180.845 36.4587 173.127 33.6733L168.906 32.2811C166.561 31.619 163.426 30.9579 161.064 30.4474C161.861 30.6219 162.629 30.9131 163.342 31.3117C176.762 40.2789 126.252 104.581 90.0912 116.258C80.9889 118.662 79.8797 114.596 79.2701 112.408C79.7288 114.782 80.5 117.922 81.1015 120.287L82.4883 124.513C83.8065 128.064 87.6233 129.255 94.0637 127.47Z" fill="white"/>
<path d="M106.337 147.175C125.322 141.903 157.989 114.837 179.32 86.7163C194.871 66.216 200.089 50.8072 194.399 46.0149C193.07 44.8883 191.176 43.5181 189.796 42.4421C188.105 41.2065 185.699 39.8119 183.915 38.6858C190.695 42.5504 185.88 57.9418 170.095 78.7625C149.401 106.057 117.698 132.305 99.2672 137.424C93.0956 139.142 89.1953 138.255 87.5172 135.301C88.5796 137.119 90.122 139.432 91.2768 141.208C92.2964 142.629 93.7705 144.438 94.8405 145.826C96.7862 148.19 100.619 148.757 106.337 147.175Z" fill="white"/>
<path d="M187.353 94.7727C166.072 122.927 133.354 149.959 114.377 155.223C109.247 156.653 105.634 156.337 103.521 154.563C105.827 156.396 109.016 158.691 111.439 160.355L114.005 161.893C116.142 163.119 119.393 163.224 123.717 161.964C142.148 156.844 173.859 130.588 194.546 103.302C208.328 85.1364 213.734 71.1252 210.412 65.2687C209.476 63.6447 208.085 61.5498 207.073 59.968C206.062 58.3862 204.301 56.3087 203.097 54.7524C207.662 60.1694 202.249 75.1321 187.353 94.7727Z" fill="white"/>
<path d="M133.022 166.532C134.695 167.178 136.385 167.757 138.066 168.209C136.377 167.715 134.687 167.136 133.022 166.532C128.462 167.742 126.672 167.332 124.755 166.88C127.126 167.685 130.338 168.607 132.75 169.269L136.827 170.097C138.96 170.334 141.119 170.113 143.16 169.449C159.039 165.04 186.372 142.394 204.218 118.859C214.707 105.035 219.582 93.9715 218.578 88.1119C218.179 85.9314 217.467 83.0692 216.95 80.9226L215.377 75.99C221.022 95.7126 166.362 155.768 133.022 166.532Z" fill="white"/>
<path d="M152.864 170.488C151.494 170.894 150.077 171.117 148.648 171.15C150.824 171.122 153.73 170.95 155.915 170.812C157.62 170.633 159.837 170.243 161.559 170.03L163.003 169.691C174.675 166.391 194.887 149.725 208.067 132.352C214.183 124.293 217.739 117.56 218.561 112.885C218.959 110.241 219.346 106.678 219.576 104L219.677 99.9832C219.671 105.423 215.347 114.566 206.818 125.794C191.075 146.572 166.904 166.596 152.864 170.488Z" fill="white"/>
<g opacity="0.33">
<path d="M14.7952 87.3736L14.1365 87.6435C13.395 87.9898 13.3652 88.0032 12.9284 88.2462C12.3608 88.5774 12.3608 88.5774 12.0746 88.772L11.8761 88.9051C10.5291 89.8606 9.34544 91.0285 8.37125 92.3636C7.78 93.207 7.28092 94.1117 6.88263 95.0622L6.71949 95.4758C7.90791 92.6166 11.9946 88.533 14.8052 87.3703" fill="white"/>
<path d="M19.8147 86.469L19.1653 86.4831C18.521 86.5069 17.8794 86.5782 17.2456 86.6966C17.1595 86.7133 17.0701 86.7333 16.9774 86.76C14.666 87.4007 10.6887 90.6954 8.08997 94.1211C6.88561 95.7118 6.19098 97.0494 6.02227 97.9612C5.94229 98.5275 5.8594 99.2865 5.81588 99.8561L5.80234 100.505C5.80173 99.431 6.65608 97.6299 8.33624 95.4143C11.4471 91.3138 16.2083 87.3704 18.9833 86.5963C19.2547 86.5166 19.5352 86.4726 19.818 86.4656" fill="white"/>
<path d="M24.5211 87.3133L23.6889 87.0387C23.2331 86.9148 22.6098 86.7662 22.1425 86.6771C21.7194 86.6263 21.2904 86.6683 20.8853 86.8C17.7544 87.6693 12.363 92.1332 8.84576 96.7723C6.78567 99.5098 5.81779 101.681 6.01406 102.838C6.11279 103.305 6.25163 103.931 6.3752 104.392L6.64865 105.225C6.22205 104.044 7.25711 101.525 9.68731 98.3187C13.5499 93.2292 19.4572 88.3362 22.8845 87.3752C23.5848 87.18 24.1282 87.166 24.5145 87.3066" fill="white"/>
<path d="M28.7088 89.741C28.4367 89.5288 28.0815 89.2371 27.8011 89.0365C27.456 88.8111 27.0031 88.5079 26.6415 88.2958C26.2202 88.054 25.5873 88.0415 24.7264 88.2818C21.0838 89.2829 14.8391 94.4686 10.7602 99.849C8.0425 103.431 6.97812 106.192 7.63164 107.349C7.85106 107.7 8.13039 108.178 8.37298 108.513C8.58229 108.785 8.85313 109.158 9.07568 109.424C8.17715 108.351 9.24444 105.4 12.1818 101.527C16.3781 95.9759 22.8278 90.6472 26.5714 89.6077C27.5847 89.3274 28.2955 89.3879 28.7104 89.7393" fill="white"/>
<path d="M31.8676 93.5357C31.6715 93.2204 31.4187 92.7957 31.2094 92.4904C31 92.1852 30.6727 91.7589 30.4252 91.462C30.0366 90.9976 29.2826 90.884 28.1616 91.1894C24.4181 92.2288 17.9766 97.5659 13.7721 103.109C10.7058 107.155 9.67517 110.192 10.7971 111.137C11.2567 111.493 11.8773 111.954 12.3584 112.279L12.8644 112.582C11.5275 111.82 12.4786 108.783 15.5911 104.678C19.6717 99.2955 25.923 94.1198 29.5573 93.1103C30.7743 92.7716 31.545 92.945 31.8742 93.529" fill="white"/>
<path d="M33.4812 98.0483C33.3875 97.6234 33.272 97.0507 33.1601 96.6307L32.8499 95.6581C32.5983 94.9627 31.8457 94.7279 30.5757 95.08C27.1401 96.0327 21.2295 100.929 17.3786 106.023C14.3057 110.076 13.4621 113.028 14.9857 113.575C15.4615 113.719 16.0832 113.922 16.5622 114.046L17.3661 114.21C15.6707 113.918 16.3739 111.147 19.3145 107.258C22.8318 102.619 28.2231 98.1516 31.3541 97.2824C32.6505 96.9203 33.3519 97.2332 33.4878 98.045" fill="white"/>
<path d="M33.4772 102.922C33.5523 102.401 33.6353 101.698 33.6773 101.17L33.6971 100.378C33.6968 99.4532 33.0582 99.0771 31.7883 99.4225C29.0183 100.192 24.2521 104.14 21.1429 108.242C18.3889 111.874 17.8558 114.41 19.6897 114.413C20.1188 114.401 20.6936 114.382 21.1226 114.346C21.4555 114.301 21.9044 114.249 22.2356 114.192C19.9235 114.491 21.0029 111.791 22.9837 109.156C26.9486 103.884 33.343 99.8024 33.5076 102.436C33.5094 102.601 33.497 102.766 33.4706 102.929" fill="white"/>
<path d="M26.1671 112.737C25.588 113.094 24.9755 113.393 24.3384 113.631C24.4607 113.597 24.5812 113.557 24.6993 113.511L25.3597 113.243C26.1029 112.895 26.1326 112.881 26.5678 112.64C27.1354 112.309 27.1354 112.309 27.4232 112.112L27.6201 111.978C27.1777 112.302 26.6875 112.556 26.1671 112.73" fill="white"/>
<path d="M26.1652 112.737C24.9218 113.083 25.0434 111.869 26.4428 110.032C27.8421 108.195 29.9738 106.421 31.2156 106.077C32.3944 105.75 32.342 106.825 31.1395 108.51C31.6951 107.716 32.169 106.868 32.554 105.979L32.7797 105.419C33.2526 104.192 32.9183 103.553 31.7328 103.883C29.9115 104.384 26.7842 106.98 24.7422 109.672C22.7003 112.365 22.5185 114.135 24.3398 113.635C24.9769 113.397 25.5894 113.098 26.1685 112.741" fill="white"/>
<path d="M27.7452 111.554C28.4009 111.37 29.5221 110.432 30.2639 109.467C31.0057 108.501 31.0657 107.858 30.4084 108.04C29.751 108.222 28.6315 109.162 27.8913 110.126C27.1511 111.09 27.0896 111.734 27.7452 111.554Z" fill="white"/>
</g>
<path d="M12.1363 89.3776C11.8727 89.1133 10.89 89.6695 9.94142 90.62C8.9928 91.5704 8.43744 92.5551 8.701 92.8194C8.96456 93.0836 9.94723 92.5274 10.8959 91.577C11.8445 90.6265 12.3998 89.6418 12.1363 89.3776Z" fill="white"/>
<path d="M7.75515 97.0092C10.1989 96.2986 14.4978 92.2679 15.9693 89.307C16.2992 88.6424 17.1877 86.5473 14.7906 87.3741L14.1318 87.644C13.67 87.8455 13.5922 87.8905 12.9237 88.2467C12.6126 88.4231 12.5812 88.4414 12.07 88.7725L11.8714 88.9056C13.271 87.9639 13.8079 88.0429 14.0037 88.1722C15.0439 88.8798 11.1083 93.8964 8.27898 94.8117C8.22434 94.8268 8.15314 94.8418 8.10015 94.8518C7.52879 94.9439 6.93166 94.596 8.10071 92.7613C7.61927 93.4909 7.20713 94.2642 6.8697 95.071L6.70656 95.4847C6.23699 96.7024 6.57297 97.3363 7.75515 97.0092Z" fill="white"/>
<path d="M8.10012 92.7568L8.36601 92.3582C8.26689 92.5027 8.17827 92.6356 8.10012 92.7568Z" fill="white"/>
<path d="M17.4667 86.6634C17.3937 86.6702 17.3207 86.6802 17.2427 86.6953L17.4667 86.6634Z" fill="white"/>
<path d="M5.9963 98.1676L6.02407 97.9562C6.01106 98.0261 6.0018 98.0967 5.9963 98.1676Z" fill="white"/>
<path d="M7.71125 101.452C10.4812 100.683 15.2458 96.7366 18.3567 92.6361C21.109 89.006 21.6437 86.4714 19.8114 86.4672L19.162 86.4813C18.593 86.5008 18.0262 86.5615 17.466 86.6629C19.2333 86.4762 18.8518 88.637 16.458 91.7935C13.8626 95.2158 9.88522 98.5105 7.5722 99.1562C6.42148 99.4749 5.9021 99.0754 5.9913 98.1703C5.91788 98.7035 5.84801 99.3528 5.81262 99.8543L5.79909 100.504C5.80269 101.422 6.43304 101.806 7.71125 101.452Z" fill="white"/>
<path d="M8.91789 105.803C12.3535 104.85 18.2641 99.9541 22.1151 94.8596C25.1879 90.8073 26.0299 87.8571 24.5079 87.3079L23.6757 87.0334C23.2132 86.9028 22.595 86.7725 22.1292 86.6718C22.2865 86.7062 22.4379 86.7636 22.5785 86.8422C25.2247 88.6104 15.265 101.29 8.13457 103.592C6.33973 104.066 6.12101 103.265 6.00082 102.833C6.09127 103.301 6.24334 103.92 6.36195 104.387L6.6354 105.22C6.89532 105.92 7.64796 106.155 8.91789 105.803Z" fill="white"/>
<path d="M11.3393 109.689C15.0829 108.65 21.5244 103.313 25.7305 97.7677C28.7968 93.7253 29.8258 90.687 28.7039 89.742C28.4417 89.5198 28.0683 89.2497 27.7962 89.0375C27.4627 88.7938 26.9883 88.5188 26.6366 88.2968C27.9735 89.0588 27.024 92.0938 23.9115 96.1993C19.8309 101.581 13.5796 106.757 9.94529 107.766C8.72835 108.105 7.95928 107.93 7.62837 107.348C7.83787 107.706 8.142 108.162 8.36971 108.512C8.57076 108.793 8.86144 109.149 9.07242 109.423C9.4561 109.889 10.2118 110.001 11.3393 109.689Z" fill="white"/>
<path d="M27.314 99.3567C23.1177 104.908 16.6663 110.239 12.9244 111.276C11.9128 111.558 11.2003 111.496 10.7837 111.146C11.2384 111.508 11.8672 111.96 12.345 112.288L12.851 112.592C13.2723 112.834 13.9135 112.854 14.7661 112.606C18.4004 111.596 24.6534 106.419 28.7323 101.039C31.45 97.4566 32.516 94.6938 31.8608 93.539C31.6763 93.2187 31.402 92.8057 31.2026 92.4938C31.0031 92.1818 30.656 91.7722 30.4185 91.4653C31.3186 92.5335 30.2514 95.4839 27.314 99.3567Z" fill="white"/>
<path d="M16.6002 113.506C16.9302 113.633 17.2634 113.747 17.5949 113.836C17.2617 113.739 16.9285 113.625 16.6002 113.506C15.7012 113.744 15.3481 113.663 14.9702 113.574C15.4377 113.733 16.071 113.915 16.5467 114.045L17.3505 114.209C17.7712 114.255 18.197 114.212 18.5994 114.081C21.7304 113.212 27.12 108.746 30.6389 104.105C32.7073 101.379 33.6686 99.1978 33.4707 98.0424C33.3919 97.6125 33.2515 97.0481 33.1496 96.6248L32.8394 95.6522C33.9526 99.5412 23.1744 111.383 16.6002 113.506Z" fill="white"/>
<path d="M20.5135 114.286C20.2434 114.367 19.9638 114.41 19.6821 114.417C20.1112 114.411 20.6843 114.377 21.115 114.35C21.4512 114.315 21.8884 114.238 22.228 114.196L22.5128 114.129C24.8142 113.479 28.7998 110.192 31.3986 106.767C32.6046 105.178 33.3058 103.85 33.4679 102.928C33.5463 102.407 33.6227 101.704 33.668 101.176L33.6878 100.384C33.6868 101.457 32.8341 103.259 31.1523 105.473C28.0481 109.571 23.2818 113.519 20.5135 114.286Z" fill="white"/>
<path d="M24.6948 113.512L25.3553 113.244C25.8253 113.034 25.8948 112.997 26.5634 112.641C26.8745 112.464 26.9059 112.446 27.4188 112.113L27.6156 111.979C28.8756 111.084 29.9942 110.005 30.9338 108.778C31.0049 108.686 31.0775 108.59 31.1353 108.505C31.6913 107.713 32.1657 106.867 32.5514 105.979L32.7772 105.419C32.4031 106.29 31.9146 107.106 31.3245 107.846C29.413 110.364 26.5455 112.799 24.6948 113.512Z" fill="white"/>
<g opacity="0.33">
<path d="M79.3045 209.04L77.6811 209.705C75.8539 210.559 75.7805 210.592 74.704 211.191C73.3054 212.007 73.3054 212.007 72.6001 212.486L72.111 212.814C68.7914 215.169 65.8747 218.047 63.474 221.337C62.017 223.415 60.7872 225.645 59.8057 227.987L59.4037 229.006C62.3323 221.96 72.4029 211.897 79.329 209.032" fill="white"/>
<path d="M91.6719 206.811L90.0717 206.846C88.484 206.905 86.9028 207.08 85.3411 207.372C85.1289 207.413 84.9086 207.462 84.6801 207.528C78.9842 209.107 69.1829 217.226 62.779 225.668C59.8111 229.588 58.0994 232.884 57.6836 235.131C57.4866 236.527 57.2823 238.397 57.1751 239.801L57.1417 241.401C57.1402 238.753 59.2455 234.315 63.3859 228.855C71.0519 218.75 82.7849 209.032 89.6232 207.125C90.2919 206.928 90.9833 206.82 91.6801 206.803" fill="white"/>
<path d="M103.271 208.891L101.22 208.214C100.097 207.909 98.5613 207.543 97.4095 207.323C96.367 207.198 95.3099 207.301 94.3115 207.626C86.596 209.768 73.3103 220.768 64.6428 232.2C59.5662 238.946 57.1811 244.298 57.6648 247.149C57.9081 248.299 58.2502 249.841 58.5547 250.978L59.2286 253.031C58.1773 250.119 60.728 243.912 66.7166 236.011C76.235 223.469 90.7923 211.412 99.2381 209.043C100.964 208.562 102.303 208.528 103.255 208.874" fill="white"/>
<path d="M113.589 214.875C112.918 214.352 112.043 213.633 111.352 213.139C110.502 212.584 109.386 211.836 108.495 211.314C107.457 210.718 105.897 210.687 103.775 211.279C94.7989 213.746 79.4104 226.525 69.3587 239.784C62.6617 248.611 60.0388 255.415 61.6492 258.265C62.19 259.132 62.8783 260.309 63.4761 261.135C63.9919 261.805 64.6594 262.725 65.2078 263.379C62.9935 260.735 65.6236 253.464 72.8621 243.92C83.2028 230.24 99.0968 217.108 108.322 214.547C110.819 213.856 112.571 214.005 113.593 214.871" fill="white"/>
<path d="M121.374 224.228C120.891 223.451 120.268 222.404 119.752 221.652C119.236 220.9 118.43 219.849 117.82 219.118C116.862 217.973 115.004 217.693 112.242 218.446C103.017 221.007 87.143 234.159 76.7819 247.819C69.2259 257.789 66.6861 265.272 69.4508 267.601C70.5835 268.479 72.1128 269.615 73.2984 270.415L74.5452 271.162C71.2507 269.284 73.5945 261.801 81.2646 251.684C91.3203 238.421 106.725 225.667 115.681 223.18C118.68 222.345 120.579 222.772 121.391 224.211" fill="white"/>
<path d="M125.352 235.348C125.122 234.3 124.837 232.889 124.561 231.854L123.797 229.457C123.177 227.744 121.322 227.165 118.192 228.033C109.726 230.38 95.1608 242.446 85.671 255.001C78.0987 264.987 76.0198 272.261 79.7745 273.61C80.9469 273.964 82.4789 274.466 83.6594 274.771L85.6403 275.173C81.4623 274.455 83.1952 267.627 90.4418 258.043C99.1093 246.611 112.395 235.602 120.111 233.46C123.305 232.568 125.034 233.339 125.369 235.339" fill="white"/>
<path d="M125.342 247.356C125.527 246.071 125.732 244.34 125.835 243.039L125.884 241.087C125.884 238.807 124.31 237.881 121.18 238.732C114.354 240.627 102.609 250.357 94.9472 260.466C88.1606 269.416 86.847 275.666 91.3664 275.672C92.4237 275.642 93.8402 275.595 94.8974 275.508C95.7177 275.396 96.8238 275.268 97.64 275.128C91.9424 275.864 94.6024 269.211 99.4836 262.719C109.254 249.726 125.012 239.668 125.417 246.157C125.422 246.564 125.391 246.971 125.326 247.373" fill="white"/>
<path d="M107.328 271.543C105.901 272.422 104.392 273.16 102.822 273.746C103.123 273.664 103.42 273.565 103.711 273.45L105.338 272.789C107.17 271.932 107.243 271.899 108.316 271.304C109.714 270.488 109.714 270.488 110.423 270.004L110.909 269.672C109.818 270.473 108.61 271.098 107.328 271.526" fill="white"/>
<path d="M107.325 271.544C104.261 272.395 104.561 269.404 108.009 264.878C111.458 260.352 116.711 255.979 119.771 255.132C122.676 254.326 122.547 256.973 119.583 261.127C120.952 259.171 122.12 257.082 123.069 254.89L123.625 253.51C124.791 250.485 123.967 248.911 121.045 249.725C116.557 250.958 108.851 257.356 103.819 263.991C98.7867 270.627 98.3387 274.989 102.827 273.756C104.397 273.17 105.906 272.432 107.333 271.553" fill="white"/>
<path d="M111.215 268.626C112.831 268.173 115.594 265.862 117.422 263.482C119.25 261.102 119.398 259.518 117.778 259.967C116.158 260.415 113.399 262.73 111.575 265.106C109.751 267.482 109.599 269.07 111.215 268.626Z" fill="white"/>
</g>
<path d="M72.7653 213.978C72.1158 213.327 69.6942 214.698 67.3565 217.04C65.0189 219.382 63.6503 221.808 64.2998 222.46C64.9493 223.111 67.3709 221.74 69.7085 219.398C72.0462 217.056 73.4147 214.629 72.7653 213.978Z" fill="white"/>
<path d="M61.9683 232.785C67.9904 231.034 78.5839 221.101 82.2101 213.805C83.0231 212.167 85.2127 207.004 79.3055 209.041L77.6821 209.706C76.5441 210.203 76.3524 210.314 74.705 211.192C73.9384 211.626 73.8609 211.672 72.6011 212.487L72.1119 212.816C75.5608 210.495 76.884 210.69 77.3664 211.008C79.9298 212.752 70.2314 225.114 63.2592 227.37C63.1245 227.407 62.9491 227.444 62.8185 227.469C61.4105 227.695 59.939 226.838 62.8198 222.317C61.6334 224.115 60.6178 226.02 59.7863 228.009L59.3843 229.028C58.2271 232.029 59.0551 233.591 61.9683 232.785Z" fill="white"/>
<path d="M62.8155 222.305L63.4707 221.326C63.2265 221.681 63.0081 222.007 62.8155 222.305Z" fill="white"/>
<path d="M85.9006 207.29C85.7204 207.307 85.5403 207.331 85.3479 207.368L85.9006 207.29Z" fill="white"/>
<path d="M57.6325 235.639L57.7004 235.117C57.6685 235.29 57.6459 235.464 57.6325 235.639Z" fill="white"/>
<path d="M61.8601 243.735C68.6861 241.84 80.4273 232.114 88.0933 222.009C94.8758 213.064 96.1935 206.818 91.6782 206.807L90.0779 206.842C88.6757 206.89 87.2789 207.04 85.8983 207.29C90.2534 206.83 89.3135 212.154 83.4144 219.933C77.0186 228.366 67.2173 236.485 61.5174 238.077C58.6817 238.862 57.4018 237.877 57.6216 235.647C57.4407 236.961 57.2685 238.561 57.1813 239.797L57.148 241.397C57.1568 243.66 58.7102 244.607 61.8601 243.735Z" fill="white"/>
<path d="M64.8353 254.456C73.3016 252.108 87.867 240.042 97.3568 227.488C104.929 217.502 107.004 210.232 103.253 208.879L101.202 208.202C100.063 207.88 98.5393 207.559 97.3916 207.311C97.7792 207.396 98.1523 207.537 98.4988 207.731C105.02 212.088 80.4764 243.334 62.905 249.008C58.482 250.176 57.943 248.2 57.6468 247.137C57.8697 248.29 58.2445 249.816 58.5368 250.966L59.2106 253.019C59.8512 254.745 61.7059 255.323 64.8353 254.456Z" fill="white"/>
<path d="M70.7991 264.031C80.0242 261.47 95.8978 248.318 106.263 234.653C113.819 224.692 116.355 217.205 113.59 214.876C112.944 214.328 112.024 213.663 111.353 213.14C110.531 212.539 109.362 211.862 108.496 211.314C111.79 213.192 109.45 220.671 101.78 230.788C91.7246 244.051 76.3197 256.806 67.3638 259.293C64.3649 260.128 62.4697 259.697 61.6542 258.261C62.1705 259.145 62.92 260.269 63.4811 261.131C63.9766 261.822 64.6929 262.701 65.2128 263.376C66.1583 264.524 68.0205 264.8 70.7991 264.031Z" fill="white"/>
<path d="M110.166 238.569C99.8254 252.249 83.9273 265.385 74.7062 267.942C72.2133 268.637 70.4574 268.484 69.4309 267.622C70.5514 268.513 72.1011 269.628 73.2785 270.436L74.5253 271.183C75.5635 271.779 77.1435 271.831 79.2447 271.218C88.2006 268.731 103.61 255.972 113.661 242.713C120.358 233.886 122.985 227.078 121.371 224.232C120.916 223.443 120.24 222.425 119.749 221.657C119.257 220.888 118.402 219.879 117.816 219.122C120.035 221.755 117.405 229.025 110.166 238.569Z" fill="white"/>
<path d="M83.7651 273.437C84.5782 273.751 85.3994 274.033 86.2164 274.253C85.3953 274.012 84.5741 273.731 83.7651 273.437C81.5496 274.025 80.6796 273.826 79.7483 273.606C80.9004 273.998 82.4609 274.446 83.6332 274.767L85.6141 275.17C86.6508 275.285 87.6999 275.178 88.6917 274.855C96.4072 272.713 109.689 261.708 118.36 250.272C123.457 243.555 125.826 238.179 125.338 235.332C125.144 234.272 124.798 232.882 124.547 231.838L123.783 229.442C126.526 239.025 99.9658 268.207 83.7651 273.437Z" fill="white"/>
<path d="M93.4093 275.36C92.7437 275.557 92.0548 275.665 91.3606 275.682C92.4179 275.668 93.8303 275.584 94.8916 275.517C95.7202 275.43 96.7976 275.241 97.6343 275.137L98.3361 274.973C104.007 273.369 113.829 265.271 120.233 256.829C123.205 252.913 124.933 249.641 125.333 247.37C125.526 246.085 125.714 244.354 125.826 243.052L125.874 241.1C125.872 243.744 123.771 248.186 119.626 253.642C111.977 263.739 100.231 273.468 93.4093 275.36Z" fill="white"/>
<path d="M103.712 273.452L105.34 272.791C106.498 272.274 106.669 272.184 108.317 271.306C109.083 270.871 109.161 270.826 110.425 270.006L110.91 269.674C114.015 267.471 116.771 264.812 119.087 261.786C119.262 261.561 119.441 261.323 119.583 261.115C120.953 259.163 122.122 257.078 123.073 254.89L123.629 253.511C122.708 255.655 121.504 257.666 120.049 259.489C115.339 265.695 108.273 271.695 103.712 273.452Z" fill="white"/>
</svg>
