<svg width="106" height="175" viewBox="0 0 106 175" fill="none" xmlns="http://www.w3.org/2000/svg">
<g style="mix-blend-mode:overlay">
<path d="M104.06 65.7867C104.474 63.826 104.839 61.8495 105.173 59.8414C107.541 45.6105 107.939 30.1463 105.809 18.1291C103.107 4.0405 99.1967 1.35247 95.7318 0.561865C93.6496 0.340496 90.9635 0.182348 88.7383 0.0400391C93.8404 0.561838 98.6563 6.60206 101.803 17.8286C104.12 26.7021 105.243 35.8423 105.141 45.0096C105.146 49.9335 104.87 54.8537 104.315 59.7465C104.092 61.7388 103.822 63.6996 103.504 65.6128C103.059 68.3167 102.535 70.9415 101.915 73.5189L102.153 73.6611C102.852 71.1206 103.488 68.4959 104.06 65.7867Z" fill="white" fill-opacity="0.5"/>
<path d="M161.326 29.7988C159.864 28.8026 156.431 26.494 143.541 34.9851C133.861 41.4996 123.005 51.8249 113.85 62.7511C112.261 64.5695 110.83 66.4196 109.4 68.2696C107.699 70.4675 106.094 72.6811 104.631 74.879L104.377 74.7683C105.823 72.523 107.365 70.2303 108.97 67.9375C110.306 66.0559 111.672 64.1584 113.103 62.2767C121.112 51.3738 130.26 41.3457 140.393 32.3603C148.341 25.735 153.602 23.4423 155.763 25.15L156.224 25.4978C157.75 26.7944 159.912 28.4705 161.326 29.7988Z" fill="white" fill-opacity="0.5"/>
<path d="M109.973 18.7143C110.768 30.5418 109.194 45.7846 106.063 59.9364C105.618 61.9604 105.141 63.9685 104.632 65.945C103.949 68.6331 103.186 71.2579 102.391 73.8511L102.63 73.9776C103.52 71.4793 104.362 68.8703 105.189 66.1822C105.793 64.2057 106.381 62.1818 106.937 60.142C110.717 46.8971 113.077 33.2915 113.978 19.5524C114.392 9.30618 112.961 3.7403 110.323 3.12363L109.528 2.93389L103.44 1.66895C106.794 2.45955 109.258 8.23091 109.973 18.7143Z" fill="white" fill-opacity="0.5"/>
<path d="M57.5229 3.59863C57.157 3.69351 56.807 3.77255 56.457 3.88324L57.5229 3.59863Z" fill="white" fill-opacity="0.5"/>
<path d="M42.2964 9.51172C41.8616 9.70146 41.4321 9.90704 41.0078 10.1284L42.2964 9.51172Z" fill="white" fill-opacity="0.5"/>
<path d="M74.3384 25.8461C85.8407 34.8176 94.2283 47.1488 98.3229 61.1071C98.7362 62.6883 99.0699 64.1272 99.3401 65.6136C99.7338 67.7863 99.9676 69.9847 100.04 72.1913L100.262 72.3653C100.261 70.0743 100.096 67.7864 99.7693 65.5186C99.5468 63.9374 99.2607 62.3562 98.8951 60.775C95.4372 46.573 87.7542 33.7388 76.8497 23.9486C61.6071 10.3344 44.4889 7.18783 33.5536 14.5563C31.5986 15.9003 29.0873 17.8452 27.1959 19.2999L26.8145 19.6162C37.9087 10.3186 57.0931 12.2952 74.3384 25.8461Z" fill="white" fill-opacity="0.5"/>
<path d="M70.1416 30.2727C83.4293 38.3052 93.0612 50.0378 97.3209 61.8968C97.8136 63.2567 98.2269 64.6007 98.5766 65.9447C99.0758 67.8868 99.4265 69.8637 99.6256 71.8584L99.8322 72.0324C99.6984 69.9046 99.4008 67.7902 98.9421 65.7076C98.6242 64.3003 98.2428 62.8614 97.7818 61.4383C93.8877 49.1365 84.7803 36.724 72.049 27.9483C52.642 14.5871 31.2165 14.1285 20.3289 25.703C19.0097 27.1102 17.3885 29.0868 16.1328 30.5573L14.75 32.344C25.0654 18.5559 48.6525 17.3068 70.1416 30.2727Z" fill="white" fill-opacity="0.5"/>
<path d="M6.40472 46.7012C6.21381 47.0965 6.0229 47.5076 5.8479 47.9187L6.40472 46.7012Z" fill="white" fill-opacity="0.5"/>
<path d="M0.969727 64.9478L1.30382 63.2559C1.14473 63.8251 0.969727 64.3785 0.969727 64.9478Z" fill="white" fill-opacity="0.5"/>
<path d="M65.5323 41.1835C80.0597 45.7216 90.8837 54.2443 96.0971 63.9213C96.6319 64.9215 97.1095 65.9508 97.5275 67.0046C98.0774 68.3445 98.5237 69.7242 98.8627 71.1316L99.0375 71.3055C98.7182 69.7298 98.2772 68.1809 97.7183 66.6726C97.2983 65.5475 96.8208 64.4445 96.2878 63.3678C91.2334 53.1058 80.5524 43.7451 66.0886 38.2899L66.1363 38.6852L66.2317 38.2899C40.6418 28.5813 12.9857 34.9061 4.4664 52.3942C3.81831 53.711 3.2865 55.0813 2.87697 56.4896L2.09815 59.4306L1.31934 63.2571C1.74572 61.5055 2.35846 59.8041 3.14718 58.1815C11.6347 40.6934 39.5769 33.0877 65.5323 41.1835Z" fill="white" fill-opacity="0.5"/>
<path d="M65.2461 47.4131C79.7417 50.0063 90.677 56.7105 95.8903 65.1542C96.4215 65.9961 96.9044 66.8672 97.3367 67.7632C97.7959 68.7428 98.1888 69.7517 98.5129 70.7833C98.5572 70.8486 98.6108 70.9071 98.6718 70.9572C98.3355 69.7298 97.9051 68.5299 97.3844 67.3679C96.9533 66.3944 96.4705 65.4444 95.938 64.5218C90.6452 55.4614 79.7735 47.8558 65.1825 44.2981C39.0682 37.9732 10.983 46.9229 2.44772 64.4111C0.995915 67.3428 0.162899 70.5393 0 73.8035V75.0684C0 77.203 2.91318e-06 80.0651 0.127157 82.2155C-0.619875 61.5017 27.672 41.8472 65.2461 47.4131Z" fill="white" fill-opacity="0.5"/>
<path d="M2.66919 97.6953C2.74873 98.059 2.82829 98.4385 2.92374 98.8022C2.8442 98.4543 2.74873 98.0748 2.66919 97.6953Z" fill="white" fill-opacity="0.5"/>
<path d="M73.0831 67.51C85.5283 63.8258 94.3655 65.1856 98.053 70.2771L98.2755 70.5302C97.6587 68.8549 96.8365 67.2617 95.8278 65.7866C90.5827 57.9912 79.9335 52.2356 65.5492 50.6544C39.6573 47.824 11.7628 59.6988 3.2276 77.187C1.07011 81.3752 0.302219 86.136 1.03419 90.7855C1.41565 92.841 2.03553 95.45 2.62362 97.6478C1.75316 92.8963 2.50863 87.9916 4.76934 83.7174C13.3046 66.2292 40.8494 52.8997 66.328 53.9275C81.062 54.892 90.8529 59.1296 96.0821 66.8143C96.5184 67.4576 96.9215 68.1226 97.2901 68.8066C96.9588 68.2605 96.598 67.7326 96.2093 67.2254C91.2503 60.7583 81.1256 56.9001 67.4724 57.3745C42.6296 58.2284 15.5934 73.1075 7.07401 90.5799C4.14946 96.5885 3.78389 102.123 5.48458 106.771C6.39056 109.017 7.74158 111.942 8.66344 114.156C0.716293 96.4461 29.6121 66.2293 68.8234 60.7108C68.7121 60.5211 68.6168 60.3155 68.5214 60.11C68.6168 60.3155 68.7121 60.5211 68.8234 60.7267C81.968 59.1455 91.6794 62.1498 96.3841 67.9686C96.8867 68.5961 97.3385 69.2623 97.7351 69.961L97.8305 70.1664C94 63.9997 84.3521 61.454 70.8102 64.2053C47.8429 68.8383 22.3326 86.7849 13.7973 104.257C10.3482 111.309 10.2052 117.223 12.7483 121.445C13.8927 123.311 15.5298 125.683 16.8013 127.58C14.3536 123.754 14.6079 117.982 18.1206 110.772C26.7671 93.347 51.3079 73.9455 73.0831 67.51Z" fill="white" fill-opacity="0.5"/>
<path d="M78.2961 73.6928C88.4208 68.4115 95.5256 67.7474 98.6408 70.9415L98.2753 70.5619C94.8421 66.4507 86.8791 66.182 75.61 70.7359C55.2176 78.9582 31.7894 99.7827 23.27 117.271C19.4554 125.098 19.2647 130.917 22.0303 134.237C23.4926 135.945 25.5429 138.127 27.0529 139.787C24.3668 137.004 24.6847 131.328 28.6423 123.2C37.1776 105.712 59.3978 83.5595 78.2961 73.6928Z" fill="white" fill-opacity="0.5"/>
<path d="M84.4318 79.2118C92.379 72.6182 97.7195 70.3571 99.9129 72.0964L99.4519 71.7169C99.2188 69.8423 98.8253 67.9908 98.2757 66.1827C94.5406 53.533 83.8119 40.8833 68.5057 32.8508C44.8709 20.4857 19.0744 23.7904 9.80806 40.0294L7.53518 44.3146L6.43848 46.7338C14.9737 29.2457 42.1689 24.2015 67.2183 35.4756C82.8742 42.5436 93.9843 54.3236 98.0055 66.4356C98.5585 68.1133 98.9784 69.8316 99.2612 71.5746C96.591 69.1395 90.3763 70.6575 81.3642 76.6503C64.1348 88.1141 43.2179 111.563 34.7303 129.052C30.6455 137.4 30.121 142.871 32.5528 145.085C34.1422 146.492 36.3039 148.247 37.9251 149.607L38.1158 149.75C36.0178 148.168 36.8125 142.855 40.9768 134.317C49.4643 116.766 68.9349 92.1303 84.4318 79.2118Z" fill="white" fill-opacity="0.5"/>
<path d="M91.3459 83.9857C97.1791 76.2219 100.882 72.9172 101.916 73.5022L101.677 73.3282C102.186 70.8141 102.615 68.2051 102.917 65.5329C103.139 63.6512 103.314 61.7222 103.426 59.7774C104.316 45.4516 102.408 29.9399 97.7036 17.8278C93.0306 5.82647 86.5776 -0.2454 80.3788 0.00759293C78.0264 0.118278 74.8952 0.418715 72.5429 0.60846C82.8742 0.102473 89.3114 9.70044 93.7777 18.1283C99.738 30.1455 102.758 45.5622 102.599 59.8247C102.599 61.7222 102.504 63.6038 102.361 65.4538C102.17 68.0945 101.868 70.6718 101.439 73.1543L101.184 72.9962C101.526 70.4792 101.727 67.9455 101.788 65.4065C101.788 63.6039 101.788 61.7696 101.788 59.9196C101.24 45.4565 97.1539 31.3448 89.8836 18.8082C82.0318 5.98459 72.4952 0.228997 64.3096 1.92089C62.2752 2.34782 59.7003 3.02773 57.5228 3.59697C66.3759 1.60464 77.1204 7.07567 86.2279 19.6463C94.6008 31.608 99.6805 45.5417 100.962 60.062C101.121 61.8645 101.216 63.6355 101.248 65.3906C101.301 67.8769 101.2 70.3641 100.946 72.8381L100.803 72.7432H100.708C100.859 70.3157 100.859 67.8813 100.708 65.4538C100.612 63.762 100.437 62.0543 100.199 60.3307C98.1342 45.839 92.0836 32.197 82.7152 20.9112C71.3826 7.55001 58.238 2.71151 48.3836 6.68034C46.5239 7.45514 44.2192 8.56195 42.2166 9.51067C52.6273 4.95679 66.9799 9.27349 79.6476 22.2552C89.8353 32.8352 96.7344 46.1173 99.5155 60.5047C99.8175 62.1649 100.04 63.8094 100.215 65.438C100.451 67.7968 100.531 70.1684 100.453 72.5376L100.612 72.6483C98.8797 71.7945 94.4929 74.7513 87.8968 81.7403C74.2913 95.9712 56.3466 121.808 47.8114 139.296C43.5835 147.961 42.455 152.958 44.0444 154.081L48.622 157.085L50.0366 157.955C49.0034 157.322 50.4975 152.547 54.8049 143.803C65.3883 122.941 77.6064 102.94 91.3459 83.9857Z" fill="white" fill-opacity="0.5"/>
<path d="M149.804 20.7704C148.214 19.6477 143.796 22.6046 136.961 29.8465C127.903 39.8605 119.634 50.5549 112.23 61.8344C110.926 63.7635 109.671 65.7083 108.447 67.6216C106.857 69.9934 105.491 72.3652 104.108 74.658H104.012C104.012 75.4802 102.55 79.2751 98.8626 87.9718C84.8597 120.655 63.9746 164.724 62.8302 164.724L60.0328 163.411L56.4566 161.609C56.0751 161.387 58.046 156.865 62.2739 148.074C70.8091 130.585 85.5114 102.867 95.1274 86.1534C99.8957 77.8363 102.534 73.8199 102.916 74.0413C103.869 71.5746 104.839 69.0131 105.777 66.3725C106.476 64.396 107.175 62.3562 107.859 60.3164C112.277 47.4168 115.704 34.2021 118.111 20.7862C119.7 10.9827 119.303 5.73311 117.475 5.17969L122.116 6.7609L124.23 7.53567C124.564 7.66217 124.723 8.18397 124.723 9.11688C124.303 13.54 123.397 17.904 122.021 22.1303C119.001 32.8509 114.073 47.0818 108.733 60.5695C107.938 62.6092 107.144 64.6331 106.317 66.6254C105.257 69.2186 104.198 71.7433 103.138 74.1995L103.377 74.3259C104.51 71.9119 105.665 69.4295 106.842 66.8785L109.623 60.8541C115.631 47.6826 121.719 33.9735 125.978 23.7747C129.698 14.9358 131.335 10.4451 131.001 10.3028L134.18 11.7575L137.438 13.3387C137.057 13.2438 134.482 17.2917 129.793 25.5298C124.357 35.112 117.236 48.2992 110.545 61.107C109.496 63.0994 108.463 65.1075 107.446 67.0682C106.158 69.5507 104.902 72.0016 103.694 74.3734L103.933 74.4999C105.215 72.1597 106.561 69.7773 107.97 67.3528C109.099 65.4079 110.243 63.4315 111.419 61.4549C118.778 49.0741 126.932 36.5193 133.544 27.6329C139.345 19.8375 142.858 16.3114 143.859 16.9281L145.56 17.9717L149.804 20.7704Z" fill="white" fill-opacity="0.5"/>
<path d="M192.909 83.9075C190.54 72.4121 178.032 63.257 159.388 61.1539C143.065 59.3716 126.607 62.9774 112.547 71.416C110.5 72.6972 108.54 74.1128 106.682 75.6536C108.065 76.9344 108.176 82.0733 106.682 90.9439C103.503 110.329 93.9667 140.214 85.4632 157.703C81.2353 166.383 78.0247 170.352 76.2763 169.846L71.9531 168.392L69.5371 167.49C70.5702 167.886 73.3517 163.743 77.6273 154.983C87.5713 133.81 95.9745 111.954 102.772 89.584C105.442 80.2865 106.078 75.4481 105.029 75.0686L104.807 74.9737C106.385 72.8654 108.07 70.7571 109.861 68.6489C111.387 66.8463 112.976 65.0648 114.629 63.3044C124.341 52.9158 135.975 43.4285 146.561 37.8785C156.638 32.5498 163.711 31.8383 166.794 35.0007C168.384 36.661 170.371 38.8272 171.833 40.5349C168.416 36.4712 160.484 36.2499 149.263 40.8354C137.899 45.4683 125.565 54.0859 115.408 63.8104C113.644 65.5023 111.943 67.2258 110.338 68.9651C108.462 70.9891 106.714 73.0288 105.093 75.0844H105.395C106.984 73.1395 108.86 71.1946 110.783 69.2971C112.706 67.3997 114.28 65.9608 116.155 64.3637C126.741 55.2718 139.71 47.6187 151.79 43.9819C164.219 40.2503 173.025 41.5627 176.696 46.6542C177.968 48.5358 179.685 50.9867 180.908 52.979C177.062 46.923 167.462 44.488 153.968 47.2709C141.252 49.8799 127.79 56.5843 116.823 65.0121C114.868 66.5933 112.976 68.1745 111.196 69.7557C109.416 71.3369 107.366 73.3766 105.665 75.2425L105.983 75.3373C107.765 73.5256 109.649 71.8152 111.625 70.2142C117.971 65.0727 124.992 60.8168 132.494 57.5646C139.979 54.2332 147.925 52.0424 156.066 51.0658C158.18 50.8919 160.182 50.8128 162.09 50.8128C174.217 50.8128 182.053 54.2757 185.422 61.1539C186.408 63.3676 187.743 66.2928 188.601 68.5382C182.975 56.347 168.575 54.1334 157.496 54.418C141.041 55.2112 125.19 60.8342 111.943 70.5779C109.946 72.0425 108.041 73.6266 106.237 75.3215C106.323 75.3511 106.403 75.3938 106.475 75.448C108.294 73.8485 110.216 72.3695 112.229 71.0207C125.929 61.9279 142.149 57.3328 158.609 57.8808C170.132 58.7189 177.682 61.5017 182.736 65.0278C186.868 67.7746 189.891 71.8852 191.272 76.6339C191.78 78.7844 192.448 81.5989 192.909 83.9075Z" fill="white" fill-opacity="0.5"/>
<path d="M194.022 93.2204C193.259 79.9224 180.13 68.1424 159.77 64.4424C146.166 62.0032 132.145 63.4507 119.335 68.6168C117.085 69.5276 114.897 70.584 112.786 71.7792C110.754 72.9321 108.809 74.2322 106.969 75.669H107.16C109.766 76.3015 111.308 81.7724 110.847 92.0028C109.925 112.037 102.248 142.428 93.7289 159.995C89.5487 168.549 85.9407 172.439 83.4453 171.822L84.5897 172.091L90.5501 173.34C93.7289 173.894 97.6548 170.083 101.676 161.703C110.211 144.214 116.076 113.444 114.789 92.9358C114.185 83.322 112.103 77.6929 109.194 76.2224L109.623 76.1117C113.676 77.0604 117.109 82.9742 118.921 93.505C122.514 114.33 118.492 145.384 109.973 162.873C105.983 171.032 101.724 174.795 97.9409 174.384C100.182 174.621 103.17 174.795 105.411 174.953C109.687 175.111 114.153 171.348 117.984 163.489C126.519 146.001 128.728 114.804 122.927 93.8054C119.748 82.4998 114.98 76.4121 109.893 76.0168H110.005C116.172 75.8587 122.466 81.9306 127.043 93.8371C135.118 114.851 134.736 146.017 126.201 163.537C122.529 171.063 117.952 174.827 113.279 175.001C115.631 174.906 118.762 174.621 121.115 174.431C126.01 173.862 130.572 170.083 134.053 162.967C142.572 145.574 141.205 114.409 130.969 93.5525C124.929 81.2823 117.173 75.2895 110.068 76.0168C122.784 74.1985 131.923 88.2871 134.927 92.9516C152.999 123.88 149.963 167.363 129.332 173.15C131.716 172.644 134.847 171.822 137.279 171.221C142.048 169.798 146.275 166.083 149.248 159.979C157.767 142.586 153.015 112.1 138.599 91.9871C129.491 79.3374 118.699 73.8506 109.846 75.9536H109.719C110.486 75.7365 111.266 75.5675 112.055 75.4476C121.226 74.0562 132.32 79.2583 142.048 90.8169C158.323 110.297 164.681 140.166 156.162 157.655C154.093 162.361 150.377 166.16 145.703 168.344C147.913 167.411 150.646 166.098 152.729 165.181C156.943 162.888 160.29 159.291 162.265 154.935C170.8 137.463 163.108 108.21 145.083 89.6153C134.243 78.4361 122.132 73.6451 112.341 75.3844C111.372 75.5688 110.416 75.817 109.48 76.1275H109.385L110.577 75.669C110.132 75.8113 109.703 75.9536 109.274 76.1275H109.051C110.325 75.5539 111.636 75.0679 112.977 74.6729C124.103 71.3998 138.408 74.5147 152.792 83.9229C175.044 99.3555 186.17 126.046 177.699 143.534C176.674 145.632 175.358 147.575 173.789 149.306C175.124 147.851 176.697 145.97 177.905 144.562L179.05 143.108C182.602 138.159 184.457 132.205 184.342 126.125C184.342 111.894 175.171 94.7383 154.779 81.5352C142.191 73.9296 126.169 69.8976 113.184 74.1827C111.671 74.6876 110.199 75.306 108.781 76.0327L108.383 75.922C109.943 75.0699 111.57 74.3454 113.247 73.7557C115.353 73.042 117.518 72.5129 119.716 72.1745C130.699 70.2929 143.891 72.4591 156.464 79.0844C178.271 91.0067 194.785 114.219 184.12 135.407L186.583 130.742L188.078 127.501C189.445 124.197 190.137 120.654 190.112 117.081C190.112 103.72 180.893 87.702 157.767 76.3963C149.295 72.4866 140.085 70.4116 130.747 70.3087C127.093 70.2963 123.448 70.6727 119.875 71.4314C117.613 71.9285 115.396 72.6107 113.247 73.4711C111.472 74.161 109.755 74.9911 108.113 75.9536H107.843C109.55 74.8752 111.342 73.934 113.199 73.139C115.343 72.2034 117.56 71.4419 119.827 70.8621C132.793 67.7721 146.403 68.7554 158.784 73.6767C167.269 76.971 174.975 81.9779 181.418 88.3819C189.254 96.4777 193.958 106.898 191.145 119.073L192.051 115.737L193.1 110.614C193.262 109.451 193.326 108.277 193.291 107.103C193.291 99.3872 189.826 81.2349 159.372 70.7357C152.483 68.5665 145.3 67.4574 138.074 67.4467C131.844 67.4116 125.644 68.3125 119.684 70.119C117.409 70.8212 115.189 71.688 113.041 72.7122C111.108 73.6243 109.248 74.6815 107.477 75.8746H107.176C108.992 74.5503 110.905 73.3611 112.897 72.3169C115.041 71.2048 117.255 70.2329 119.525 69.4074C132.465 64.9334 146.438 64.3233 159.722 67.6523C167.217 69.521 174.306 72.7362 180.639 77.1395C187.903 82.484 193.911 90.3427 193.99 101.68V100.004C194.165 97.9483 194.07 95.2443 194.022 93.2204ZM109.591 76.1117L109.178 76.2224H109.417L109.591 76.1117ZM109.099 76.0168H109.289L109.067 76.1117H109.21L109.401 76.0327H109.21H109.083L108.876 75.9378L109.099 76.0168Z" fill="white" fill-opacity="0.5"/>
</g>
</svg>
