<svg width="73" height="71" viewBox="0 0 73 71" fill="none" xmlns="http://www.w3.org/2000/svg">
<g style="mix-blend-mode:overlay">
<path d="M2.55356 69.7241C2.55357 69.8925 2.52034 70.0593 2.45581 70.2147C2.39127 70.3702 2.29671 70.5113 2.17755 70.6299C2.0584 70.7485 1.91703 70.8422 1.76158 70.9058C1.60612 70.9693 1.43968 71.0013 1.27182 71C0.934519 71 0.611021 70.8656 0.37251 70.6263C0.133999 70.387 0 70.0625 0 69.7241C0 69.3857 0.133999 69.0612 0.37251 68.8219C0.611021 68.5827 0.934519 68.4483 1.27182 68.4483C1.43968 68.447 1.60612 68.479 1.76158 68.5425C1.91703 68.606 2.0584 68.6998 2.17755 68.8184C2.29671 68.937 2.39127 69.0781 2.45581 69.2336C2.52034 69.389 2.55357 69.5557 2.55356 69.7241Z" fill="white"/>
<path d="M14.3073 69.7241C14.3073 70.0625 14.1733 70.387 13.9348 70.6262C13.6963 70.8655 13.3728 71 13.0355 71C12.6982 71 12.3747 70.8655 12.1362 70.6262C11.8977 70.387 11.7637 70.0625 11.7637 69.7241C11.7637 69.3857 11.8977 69.0612 12.1362 68.8219C12.3747 68.5826 12.6982 68.4482 13.0355 68.4482C13.3728 68.4482 13.6963 68.5826 13.9348 68.8219C14.1733 69.0612 14.3073 69.3857 14.3073 69.7241Z" fill="white"/>
<path d="M26.0426 69.7241C26.0426 70.0625 25.9086 70.387 25.6701 70.6262C25.4316 70.8655 25.1081 71 24.7708 71C24.4335 71 24.11 70.8655 23.8715 70.6262C23.633 70.387 23.499 70.0625 23.499 69.7241C23.499 69.3857 23.633 69.0612 23.8715 68.8219C24.11 68.5826 24.4335 68.4482 24.7708 68.4482C25.1081 68.4482 25.4316 68.5826 25.6701 68.8219C25.9086 69.0612 26.0426 69.3857 26.0426 69.7241Z" fill="white"/>
<path d="M37.787 69.7241C37.787 70.0625 37.653 70.387 37.4145 70.6263C37.1759 70.8656 36.8524 71 36.5151 71C36.3473 71.0013 36.1808 70.9693 36.0254 70.9058C35.8699 70.8422 35.7286 70.7485 35.6094 70.6299C35.4903 70.5113 35.3957 70.3702 35.3312 70.2147C35.2666 70.0593 35.2334 69.8925 35.2334 69.7241C35.2334 69.5557 35.2666 69.389 35.3312 69.2336C35.3957 69.0781 35.4903 68.937 35.6094 68.8184C35.7286 68.6998 35.8699 68.606 36.0254 68.5425C36.1808 68.479 36.3473 68.447 36.5151 68.4483C36.8524 68.4483 37.1759 68.5827 37.4145 68.8219C37.653 69.0612 37.787 69.3857 37.787 69.7241Z" fill="white"/>
<path d="M49.5214 69.7241C49.5214 70.0625 49.3874 70.387 49.1489 70.6262C48.9104 70.8655 48.5869 71 48.2496 71C47.9123 71 47.5888 70.8655 47.3503 70.6262C47.1118 70.387 46.9778 70.0625 46.9778 69.7241C46.9778 69.3857 47.1118 69.0612 47.3503 68.8219C47.5888 68.5826 47.9123 68.4482 48.2496 68.4482C48.5869 68.4482 48.9104 68.5826 49.1489 68.8219C49.3874 69.0612 49.5214 69.3857 49.5214 69.7241Z" fill="white"/>
<path d="M61.2655 69.7241C61.2655 69.8925 61.2323 70.0593 61.1677 70.2147C61.1032 70.3702 61.0086 70.5113 60.8895 70.6299C60.7703 70.7485 60.6289 70.8422 60.4735 70.9058C60.318 70.9693 60.1516 71.0013 59.9837 71C59.6464 71 59.3229 70.8656 59.0844 70.6263C58.8459 70.387 58.7119 70.0625 58.7119 69.7241C58.7119 69.3857 58.8459 69.0612 59.0844 68.8219C59.3229 68.5827 59.6464 68.4483 59.9837 68.4483C60.1516 68.447 60.318 68.479 60.4735 68.5425C60.6289 68.606 60.7703 68.6998 60.8895 68.8184C61.0086 68.937 61.1032 69.0781 61.1677 69.2336C61.2323 69.389 61.2655 69.5557 61.2655 69.7241Z" fill="white"/>
<path d="M72.9997 69.7241C72.9997 70.0625 72.8657 70.387 72.6272 70.6262C72.3887 70.8655 72.0652 71 71.7279 71C71.3906 71 71.0671 70.8655 70.8286 70.6262C70.5901 70.387 70.4561 70.0625 70.4561 69.7241C70.4561 69.3857 70.5901 69.0612 70.8286 68.8219C71.0671 68.5826 71.3906 68.4482 71.7279 68.4482C72.0652 68.4482 72.3887 68.5826 72.6272 68.8219C72.8657 69.0612 72.9997 69.3857 72.9997 69.7241Z" fill="white"/>
<path d="M2.55356 58.321C2.55094 58.6603 2.41475 58.9848 2.17466 59.2237C1.93457 59.4627 1.61005 59.5969 1.27182 59.5969C0.935323 59.5943 0.61334 59.459 0.37539 59.2203C0.137441 58.9816 0.00259859 58.6585 5.79397e-10 58.321C-1.0162e-05 57.9817 0.133674 57.6561 0.371903 57.4153C0.610133 57.1744 0.933609 57.0378 1.27182 57.0352C1.61176 57.0352 1.93777 57.1706 2.17814 57.4117C2.41852 57.6529 2.55356 57.9799 2.55356 58.321Z" fill="white"/>
<path d="M14.3073 58.321C14.3073 58.6593 14.1733 58.9839 13.9348 59.2231C13.6963 59.4624 13.3728 59.5969 13.0355 59.5969C12.6982 59.5969 12.3747 59.4624 12.1362 59.2231C11.8977 58.9839 11.7637 58.6593 11.7637 58.321C11.7624 58.1526 11.7943 57.9856 11.8576 57.8296C11.921 57.6737 12.0144 57.5319 12.1327 57.4124C12.2509 57.2928 12.3916 57.198 12.5465 57.1332C12.7015 57.0685 12.8677 57.0352 13.0355 57.0352C13.2034 57.0352 13.3696 57.0685 13.5245 57.1332C13.6795 57.198 13.8201 57.2928 13.9384 57.4124C14.0566 57.5319 14.1501 57.6737 14.2134 57.8296C14.2767 57.9856 14.3086 58.1526 14.3073 58.321Z" fill="white"/>
<path d="M26.0427 58.321C26.0427 58.6593 25.9087 58.9839 25.6702 59.2231C25.4317 59.4624 25.1082 59.5969 24.7709 59.5969C24.4336 59.5969 24.1101 59.4624 23.8716 59.2231C23.6331 58.9839 23.4991 58.6593 23.4991 58.321C23.4978 58.1526 23.5297 57.9856 23.593 57.8296C23.6563 57.6737 23.7498 57.5319 23.868 57.4124C23.9863 57.2928 24.1269 57.198 24.2819 57.1332C24.4368 57.0685 24.603 57.0352 24.7709 57.0352C24.9387 57.0352 25.1049 57.0685 25.2599 57.1332C25.4148 57.198 25.5555 57.2928 25.6737 57.4124C25.7919 57.5319 25.8854 57.6737 25.9487 57.8296C26.0121 57.9856 26.044 58.1526 26.0427 58.321Z" fill="white"/>
<path d="M37.787 58.321C37.7844 58.6585 37.6495 58.9816 37.4116 59.2203C37.1736 59.459 36.8516 59.5943 36.5151 59.5969C36.1769 59.5969 35.8524 59.4627 35.6123 59.2237C35.3722 58.9848 35.236 58.6603 35.2334 58.321C35.2334 57.9799 35.3684 57.6529 35.6088 57.4117C35.8492 57.1706 36.1752 57.0352 36.5151 57.0352C36.8534 57.0378 37.1768 57.1744 37.4151 57.4153C37.6533 57.6561 37.787 57.9817 37.787 58.321Z" fill="white"/>
<path d="M49.5214 58.321C49.5214 58.6593 49.3874 58.9839 49.1489 59.2231C48.9104 59.4624 48.5869 59.5969 48.2496 59.5969C47.9123 59.5969 47.5888 59.4624 47.3503 59.2231C47.1118 58.9839 46.9778 58.6593 46.9778 58.321C46.9765 58.1526 47.0084 57.9856 47.0718 57.8296C47.1351 57.6737 47.2286 57.5319 47.3468 57.4124C47.465 57.2928 47.6057 57.198 47.7606 57.1332C47.9156 57.0685 48.0818 57.0352 48.2496 57.0352C48.4175 57.0352 48.5837 57.0685 48.7386 57.1332C48.8936 57.198 49.0342 57.2928 49.1525 57.4124C49.2707 57.5319 49.3642 57.6737 49.4275 57.8296C49.4908 57.9856 49.5228 58.1526 49.5214 58.321Z" fill="white"/>
<path d="M61.2655 58.321C61.2628 58.6603 61.1267 58.9848 60.8866 59.2237C60.6465 59.4627 60.322 59.5969 59.9837 59.5969C59.6472 59.5943 59.3252 59.459 59.0873 59.2203C58.8493 58.9816 58.7145 58.6585 58.7119 58.321C58.7119 57.9817 58.8456 57.6561 59.0838 57.4153C59.322 57.1744 59.6455 57.0378 59.9837 57.0352C60.3237 57.0352 60.6497 57.1706 60.8901 57.4117C61.1304 57.6529 61.2655 57.9799 61.2655 58.321Z" fill="white"/>
<path d="M72.9997 58.321C72.9997 58.6593 72.8657 58.9839 72.6272 59.2231C72.3887 59.4624 72.0652 59.5969 71.7279 59.5969C71.3906 59.5969 71.0671 59.4624 70.8286 59.2231C70.5901 58.9839 70.4561 58.6593 70.4561 58.321C70.4548 58.1526 70.4867 57.9856 70.55 57.8296C70.6134 57.6737 70.7068 57.5319 70.8251 57.4124C70.9433 57.2928 71.0839 57.198 71.2389 57.1332C71.3939 57.0685 71.5601 57.0352 71.7279 57.0352C71.8958 57.0352 72.062 57.0685 72.2169 57.1332C72.3719 57.198 72.5125 57.2928 72.6307 57.4124C72.749 57.5319 72.8424 57.6737 72.9058 57.8296C72.9691 57.9856 73.001 58.1526 72.9997 58.321Z" fill="white"/>
<path d="M2.55356 46.9087C2.55357 47.0771 2.52034 47.2438 2.45581 47.3993C2.39127 47.5547 2.29671 47.6958 2.17755 47.8144C2.0584 47.933 1.91703 48.0268 1.76158 48.0903C1.60612 48.1539 1.43968 48.1859 1.27182 48.1846C0.934519 48.1846 0.611021 48.0502 0.37251 47.8109C0.133999 47.5716 0 47.2471 0 46.9087C0 46.5703 0.133999 46.2458 0.37251 46.0065C0.611021 45.7672 0.934519 45.6329 1.27182 45.6329C1.43968 45.6315 1.60612 45.6636 1.76158 45.7271C1.91703 45.7906 2.0584 45.8844 2.17755 46.003C2.29671 46.1216 2.39127 46.2627 2.45581 46.4181C2.52034 46.5736 2.55357 46.7403 2.55356 46.9087Z" fill="white"/>
<path d="M14.3073 46.9086C14.3073 47.247 14.1733 47.5716 13.9348 47.8109C13.6963 48.0501 13.3728 48.1845 13.0355 48.1845C12.6982 48.1845 12.3747 48.0501 12.1362 47.8109C11.8977 47.5716 11.7637 47.247 11.7637 46.9086C11.7637 46.5703 11.8977 46.2458 12.1362 46.0065C12.3747 45.7672 12.6982 45.6328 13.0355 45.6328C13.3728 45.6328 13.6963 45.7672 13.9348 46.0065C14.1733 46.2458 14.3073 46.5703 14.3073 46.9086Z" fill="white"/>
<path d="M26.0426 46.9086C26.0426 47.247 25.9086 47.5716 25.6701 47.8109C25.4316 48.0501 25.1081 48.1845 24.7708 48.1845C24.4335 48.1845 24.11 48.0501 23.8715 47.8109C23.633 47.5716 23.499 47.247 23.499 46.9086C23.499 46.5703 23.633 46.2458 23.8715 46.0065C24.11 45.7672 24.4335 45.6328 24.7708 45.6328C25.1081 45.6328 25.4316 45.7672 25.6701 46.0065C25.9086 46.2458 26.0426 46.5703 26.0426 46.9086Z" fill="white"/>
<path d="M37.787 46.9087C37.787 47.2471 37.653 47.5716 37.4145 47.8109C37.1759 48.0502 36.8524 48.1846 36.5151 48.1846C36.3473 48.1859 36.1808 48.1539 36.0254 48.0903C35.8699 48.0268 35.7286 47.933 35.6094 47.8144C35.4903 47.6958 35.3957 47.5547 35.3312 47.3993C35.2666 47.2438 35.2334 47.0771 35.2334 46.9087C35.2334 46.7403 35.2666 46.5736 35.3312 46.4181C35.3957 46.2627 35.4903 46.1216 35.6094 46.003C35.7286 45.8844 35.8699 45.7906 36.0254 45.7271C36.1808 45.6636 36.3473 45.6315 36.5151 45.6329C36.8524 45.6329 37.1759 45.7672 37.4145 46.0065C37.653 46.2458 37.787 46.5703 37.787 46.9087Z" fill="white"/>
<path d="M49.5214 46.9086C49.5214 47.247 49.3874 47.5716 49.1489 47.8109C48.9104 48.0501 48.5869 48.1845 48.2496 48.1845C47.9123 48.1845 47.5888 48.0501 47.3503 47.8109C47.1118 47.5716 46.9778 47.247 46.9778 46.9086C46.9778 46.5703 47.1118 46.2458 47.3503 46.0065C47.5888 45.7672 47.9123 45.6328 48.2496 45.6328C48.5869 45.6328 48.9104 45.7672 49.1489 46.0065C49.3874 46.2458 49.5214 46.5703 49.5214 46.9086Z" fill="white"/>
<path d="M61.2655 46.9087C61.2655 47.0771 61.2323 47.2438 61.1677 47.3993C61.1032 47.5547 61.0086 47.6958 60.8895 47.8144C60.7703 47.933 60.6289 48.0268 60.4735 48.0903C60.318 48.1539 60.1516 48.1859 59.9837 48.1846C59.6464 48.1846 59.3229 48.0502 59.0844 47.8109C58.8459 47.5716 58.7119 47.2471 58.7119 46.9087C58.7119 46.5703 58.8459 46.2458 59.0844 46.0065C59.3229 45.7672 59.6464 45.6329 59.9837 45.6329C60.1516 45.6315 60.318 45.6636 60.4735 45.7271C60.6289 45.7906 60.7703 45.8844 60.8895 46.003C61.0086 46.1216 61.1032 46.2627 61.1677 46.4181C61.2323 46.5736 61.2655 46.7403 61.2655 46.9087Z" fill="white"/>
<path d="M72.9997 46.9086C72.9997 47.247 72.8657 47.5716 72.6272 47.8109C72.3887 48.0501 72.0652 48.1845 71.7279 48.1845C71.3906 48.1845 71.0671 48.0501 70.8286 47.8109C70.5901 47.5716 70.4561 47.247 70.4561 46.9086C70.4561 46.5703 70.5901 46.2458 70.8286 46.0065C71.0671 45.7672 71.3906 45.6328 71.7279 45.6328C72.0652 45.6328 72.3887 45.7672 72.6272 46.0065C72.8657 46.2458 72.9997 46.5703 72.9997 46.9086Z" fill="white"/>
<path d="M2.55356 35.4946C2.55356 35.8357 2.41852 36.1627 2.17814 36.4039C1.93777 36.645 1.61176 36.7805 1.27182 36.7805C0.933609 36.7778 0.610133 36.6412 0.371903 36.4003C0.133674 36.1595 -1.0162e-05 35.8339 5.79369e-10 35.4946C0.00259859 35.1571 0.137441 34.834 0.37539 34.5953C0.61334 34.3566 0.935323 34.2214 1.27182 34.2188C1.61005 34.2187 1.93457 34.3528 2.17466 34.5918C2.41475 34.8308 2.55094 35.1554 2.55356 35.4946Z" fill="white"/>
<path d="M14.3073 35.4946C14.3086 35.663 14.2767 35.83 14.2134 35.9859C14.1501 36.1419 14.0566 36.2837 13.9384 36.4033C13.8201 36.5228 13.6795 36.6176 13.5245 36.6824C13.3696 36.7471 13.2034 36.7805 13.0355 36.7805C12.8677 36.7805 12.7015 36.7471 12.5465 36.6824C12.3916 36.6176 12.2509 36.5228 12.1327 36.4033C12.0144 36.2837 11.921 36.1419 11.8576 35.9859C11.7943 35.83 11.7624 35.663 11.7637 35.4946C11.7637 35.1563 11.8977 34.8317 12.1362 34.5925C12.3747 34.3532 12.6982 34.2188 13.0355 34.2188C13.3728 34.2188 13.6963 34.3532 13.9348 34.5925C14.1733 34.8317 14.3073 35.1563 14.3073 35.4946Z" fill="white"/>
<path d="M26.0427 35.4946C26.044 35.663 26.0121 35.83 25.9487 35.9859C25.8854 36.1419 25.7919 36.2837 25.6737 36.4033C25.5555 36.5228 25.4148 36.6176 25.2599 36.6824C25.1049 36.7471 24.9387 36.7805 24.7709 36.7805C24.603 36.7805 24.4368 36.7471 24.2819 36.6824C24.1269 36.6176 23.9863 36.5228 23.868 36.4033C23.7498 36.2837 23.6563 36.1419 23.593 35.9859C23.5297 35.83 23.4978 35.663 23.4991 35.4946C23.4991 35.1563 23.6331 34.8317 23.8716 34.5925C24.1101 34.3532 24.4336 34.2188 24.7709 34.2188C25.1082 34.2188 25.4317 34.3532 25.6702 34.5925C25.9087 34.8317 26.0427 35.1563 26.0427 35.4946Z" fill="white"/>
<path d="M37.787 35.4946C37.787 35.8339 37.6533 36.1595 37.4151 36.4003C37.1768 36.6412 36.8534 36.7778 36.5151 36.7805C36.1752 36.7805 35.8492 36.645 35.6088 36.4039C35.3684 36.1627 35.2334 35.8357 35.2334 35.4946C35.236 35.1554 35.3722 34.8308 35.6123 34.5918C35.8524 34.3528 36.1769 34.2187 36.5151 34.2188C36.8516 34.2214 37.1736 34.3566 37.4116 34.5953C37.6495 34.834 37.7844 35.1571 37.787 35.4946Z" fill="white"/>
<path d="M49.5213 35.4946C49.5226 35.6622 49.491 35.8284 49.4283 35.9837C49.3656 36.139 49.273 36.2803 49.1558 36.3997C49.0386 36.5191 48.8991 36.6142 48.7453 36.6795C48.5915 36.7449 48.4264 36.7792 48.2594 36.7805C48.0915 36.7805 47.9253 36.7471 47.7704 36.6824C47.6154 36.6176 47.4748 36.5228 47.3566 36.4033C47.2383 36.2837 47.1449 36.1419 47.0815 35.9859C47.0182 35.83 46.9863 35.663 46.9876 35.4946C46.9876 35.1563 47.1216 34.8317 47.3601 34.5925C47.5986 34.3532 47.9221 34.2188 48.2594 34.2188C48.595 34.2214 48.9159 34.357 49.1523 34.5959C49.3886 34.8349 49.5213 35.158 49.5213 35.4946Z" fill="white"/>
<path d="M61.2655 35.4946C61.2655 35.8357 61.1304 36.1627 60.8901 36.4039C60.6497 36.645 60.3237 36.7805 59.9837 36.7805C59.6455 36.7778 59.322 36.6412 59.0838 36.4003C58.8456 36.1595 58.7119 35.8339 58.7119 35.4946C58.7145 35.1571 58.8493 34.834 59.0873 34.5953C59.3252 34.3566 59.6472 34.2214 59.9837 34.2188C60.322 34.2187 60.6465 34.3528 60.8866 34.5918C61.1267 34.8308 61.2628 35.1554 61.2655 35.4946Z" fill="white"/>
<path d="M72.9997 35.4946C73.001 35.663 72.9691 35.83 72.9058 35.9859C72.8424 36.1419 72.749 36.2837 72.6307 36.4033C72.5125 36.5228 72.3719 36.6176 72.2169 36.6824C72.062 36.7471 71.8958 36.7805 71.7279 36.7805C71.5601 36.7805 71.3939 36.7471 71.2389 36.6824C71.0839 36.6176 70.9433 36.5228 70.8251 36.4033C70.7068 36.2837 70.6134 36.1419 70.55 35.9859C70.4867 35.83 70.4548 35.663 70.4561 35.4946C70.4561 35.1563 70.5901 34.8317 70.8286 34.5925C71.0671 34.3532 71.3906 34.2188 71.7279 34.2188C72.0652 34.2188 72.3887 34.3532 72.6272 34.5925C72.8657 34.8317 72.9997 35.1563 72.9997 35.4946Z" fill="white"/>
<path d="M2.55356 24.0923C2.55357 24.2607 2.52034 24.4274 2.45581 24.5829C2.39127 24.7383 2.29671 24.8794 2.17755 24.998C2.0584 25.1166 1.91703 25.2104 1.76158 25.2739C1.60612 25.3375 1.43968 25.3695 1.27182 25.3682C0.934519 25.3682 0.611021 25.2338 0.37251 24.9945C0.133999 24.7552 0 24.4307 0 24.0923C0 23.754 0.133999 23.4294 0.37251 23.1902C0.611021 22.9509 0.934519 22.8164 1.27182 22.8164C1.43968 22.8151 1.60612 22.8472 1.76158 22.9107C1.91703 22.9742 2.0584 23.068 2.17755 23.1866C2.29671 23.3052 2.39127 23.4463 2.45581 23.6017C2.52034 23.7572 2.55357 23.9239 2.55356 24.0923Z" fill="white"/>
<path d="M14.3073 24.0923C14.3073 24.4307 14.1733 24.7552 13.9348 24.9945C13.6963 25.2337 13.3728 25.3681 13.0355 25.3681C12.6982 25.3681 12.3747 25.2337 12.1362 24.9945C11.8977 24.7552 11.7637 24.4307 11.7637 24.0923C11.7637 23.7539 11.8977 23.4294 12.1362 23.1901C12.3747 22.9509 12.6982 22.8164 13.0355 22.8164C13.3728 22.8164 13.6963 22.9509 13.9348 23.1901C14.1733 23.4294 14.3073 23.7539 14.3073 24.0923Z" fill="white"/>
<path d="M26.0426 24.0923C26.0426 24.4307 25.9086 24.7552 25.6701 24.9945C25.4316 25.2337 25.1081 25.3681 24.7708 25.3681C24.4335 25.3681 24.11 25.2337 23.8715 24.9945C23.633 24.7552 23.499 24.4307 23.499 24.0923C23.499 23.7539 23.633 23.4294 23.8715 23.1901C24.11 22.9509 24.4335 22.8164 24.7708 22.8164C25.1081 22.8164 25.4316 22.9509 25.6701 23.1901C25.9086 23.4294 26.0426 23.7539 26.0426 24.0923Z" fill="white"/>
<path d="M37.787 24.0923C37.787 24.4307 37.653 24.7552 37.4145 24.9945C37.1759 25.2338 36.8524 25.3682 36.5151 25.3682C36.3473 25.3695 36.1808 25.3375 36.0254 25.2739C35.8699 25.2104 35.7286 25.1166 35.6094 24.998C35.4903 24.8794 35.3957 24.7383 35.3312 24.5829C35.2666 24.4274 35.2334 24.2607 35.2334 24.0923C35.2334 23.9239 35.2666 23.7572 35.3312 23.6017C35.3957 23.4463 35.4903 23.3052 35.6094 23.1866C35.7286 23.068 35.8699 22.9742 36.0254 22.9107C36.1808 22.8472 36.3473 22.8151 36.5151 22.8164C36.8524 22.8164 37.1759 22.9509 37.4145 23.1902C37.653 23.4294 37.787 23.754 37.787 24.0923Z" fill="white"/>
<path d="M49.5214 24.0923C49.5214 24.4307 49.3874 24.7552 49.1489 24.9945C48.9104 25.2337 48.5869 25.3681 48.2496 25.3681C47.9123 25.3681 47.5888 25.2337 47.3503 24.9945C47.1118 24.7552 46.9778 24.4307 46.9778 24.0923C46.9778 23.7539 47.1118 23.4294 47.3503 23.1901C47.5888 22.9509 47.9123 22.8164 48.2496 22.8164C48.5869 22.8164 48.9104 22.9509 49.1489 23.1901C49.3874 23.4294 49.5214 23.7539 49.5214 24.0923Z" fill="white"/>
<path d="M61.2655 24.0923C61.2655 24.2607 61.2323 24.4274 61.1677 24.5829C61.1032 24.7383 61.0086 24.8794 60.8895 24.998C60.7703 25.1166 60.6289 25.2104 60.4735 25.2739C60.318 25.3375 60.1516 25.3695 59.9837 25.3682C59.6464 25.3682 59.3229 25.2338 59.0844 24.9945C58.8459 24.7552 58.7119 24.4307 58.7119 24.0923C58.7119 23.754 58.8459 23.4294 59.0844 23.1902C59.3229 22.9509 59.6464 22.8164 59.9837 22.8164C60.1516 22.8151 60.318 22.8472 60.4735 22.9107C60.6289 22.9742 60.7703 23.068 60.8895 23.1866C61.0086 23.3052 61.1032 23.4463 61.1677 23.6017C61.2323 23.7572 61.2655 23.9239 61.2655 24.0923Z" fill="white"/>
<path d="M72.9997 24.0923C72.9997 24.4307 72.8657 24.7552 72.6272 24.9945C72.3887 25.2337 72.0652 25.3681 71.7279 25.3681C71.3906 25.3681 71.0671 25.2337 70.8286 24.9945C70.5901 24.7552 70.4561 24.4307 70.4561 24.0923C70.4561 23.7539 70.5901 23.4294 70.8286 23.1901C71.0671 22.9509 71.3906 22.8164 71.7279 22.8164C72.0652 22.8164 72.3887 22.9509 72.6272 23.1901C72.8657 23.4294 72.9997 23.7539 72.9997 24.0923Z" fill="white"/>
<path d="M2.55356 12.6792C2.55357 12.8476 2.52034 13.0143 2.45581 13.1698C2.39127 13.3252 2.29671 13.4663 2.17755 13.5849C2.0584 13.7035 1.91703 13.7973 1.76158 13.8608C1.60612 13.9243 1.43968 13.9564 1.27182 13.955C0.934519 13.955 0.611021 13.8207 0.37251 13.5814C0.133999 13.3421 0 13.0176 0 12.6792C0.00259859 12.3416 0.137441 12.0186 0.37539 11.7799C0.61334 11.5412 0.935323 11.4059 1.27182 11.4033C1.61005 11.4033 1.93457 11.5375 2.17466 11.7764C2.41475 12.0154 2.55094 12.3399 2.55356 12.6792Z" fill="white"/>
<path d="M14.3073 12.6782C14.3073 13.0166 14.1733 13.3411 13.9348 13.5804C13.6963 13.8197 13.3728 13.9541 13.0355 13.9541C12.6982 13.9541 12.3747 13.8197 12.1362 13.5804C11.8977 13.3411 11.7637 13.0166 11.7637 12.6782C11.7637 12.3399 11.8977 12.0153 12.1362 11.7761C12.3747 11.5368 12.6982 11.4023 13.0355 11.4023C13.3728 11.4023 13.6963 11.5368 13.9348 11.7761C14.1733 12.0153 14.3073 12.3399 14.3073 12.6782Z" fill="white"/>
<path d="M26.0426 12.6782C26.0426 13.0166 25.9086 13.3411 25.6701 13.5804C25.4316 13.8197 25.1081 13.9541 24.7708 13.9541C24.4335 13.9541 24.11 13.8197 23.8715 13.5804C23.633 13.3411 23.499 13.0166 23.499 12.6782C23.499 12.3399 23.633 12.0153 23.8715 11.7761C24.11 11.5368 24.4335 11.4023 24.7708 11.4023C25.1081 11.4023 25.4316 11.5368 25.6701 11.7761C25.9086 12.0153 26.0426 12.3399 26.0426 12.6782Z" fill="white"/>
<path d="M37.787 12.6782C37.787 13.0166 37.653 13.3411 37.4145 13.5804C37.1759 13.8197 36.8524 13.9541 36.5151 13.9541C36.3473 13.9554 36.1808 13.9234 36.0254 13.8598C35.8699 13.7963 35.7286 13.7025 35.6094 13.5839C35.4903 13.4653 35.3957 13.3242 35.3312 13.1688C35.2666 13.0133 35.2334 12.8466 35.2334 12.6782C35.236 12.3389 35.3722 12.0145 35.6123 11.7755C35.8524 11.5365 36.1769 11.4023 36.5151 11.4023C36.8516 11.405 37.1736 11.5402 37.4116 11.7789C37.6495 12.0176 37.7844 12.3407 37.787 12.6782Z" fill="white"/>
<path d="M49.5209 12.679C49.5209 13.0157 49.3883 13.3387 49.1519 13.5777C48.9155 13.8166 48.5946 13.9522 48.259 13.9549C47.9217 13.9549 47.5982 13.8205 47.3597 13.5812C47.1212 13.3419 46.9872 13.0174 46.9872 12.679C46.9819 12.5082 47.0108 12.3379 47.0724 12.1785C47.1339 12.0191 47.2267 11.8737 47.3453 11.7509C47.464 11.6282 47.606 11.5307 47.7629 11.4641C47.9199 11.3975 48.0886 11.3632 48.259 11.3633C48.4286 11.3645 48.5962 11.3998 48.752 11.4669C48.9078 11.5341 49.0486 11.6319 49.1662 11.7545C49.2838 11.8771 49.3757 12.0221 49.4366 12.1808C49.4975 12.3396 49.5262 12.509 49.5209 12.679Z" fill="white"/>
<path d="M61.2658 12.679C61.2658 12.8474 61.2326 13.0141 61.1681 13.1696C61.1035 13.325 61.009 13.4661 60.8898 13.5847C60.7707 13.7033 60.6293 13.7971 60.4738 13.8606C60.3184 13.9241 60.1519 13.9562 59.9841 13.9549C59.6468 13.9549 59.3233 13.8205 59.0848 13.5812C58.8463 13.3419 58.7123 13.0174 58.7123 12.679C58.7083 12.5085 58.7382 12.3389 58.8002 12.1801C58.8622 12.0213 58.9551 11.8764 59.0735 11.7539C59.1919 11.6315 59.3333 11.5339 59.4897 11.4668C59.646 11.3998 59.8141 11.3646 59.9841 11.3633C60.1549 11.3632 60.3241 11.3975 60.4816 11.464C60.639 11.5304 60.7817 11.6278 60.9011 11.7504C61.0205 11.873 61.1143 12.0183 61.1769 12.1778C61.2396 12.3373 61.2698 12.5077 61.2658 12.679Z" fill="white"/>
<path d="M72.9997 12.6782C72.9997 13.0166 72.8657 13.3411 72.6272 13.5804C72.3887 13.8197 72.0652 13.9541 71.7279 13.9541C71.3906 13.9541 71.0671 13.8197 70.8286 13.5804C70.5901 13.3411 70.4561 13.0166 70.4561 12.6782C70.4561 12.3399 70.5901 12.0153 70.8286 11.7761C71.0671 11.5368 71.3906 11.4023 71.7279 11.4023C72.0652 11.4023 72.3887 11.5368 72.6272 11.7761C72.8657 12.0153 72.9997 12.3399 72.9997 12.6782Z" fill="white"/>
<path d="M2.55356 1.27593C2.55357 1.44432 2.52034 1.61102 2.45581 1.76647C2.39127 1.92192 2.29671 2.06302 2.17755 2.18163C2.0584 2.30023 1.91703 2.394 1.76158 2.45753C1.60612 2.52106 1.43968 2.55308 1.27182 2.55177C0.934519 2.55177 0.611021 2.41737 0.37251 2.1781C0.133999 1.93883 0 1.61431 0 1.27593C0 0.937553 0.133999 0.613038 0.37251 0.373767C0.611021 0.134496 0.934519 3.89465e-05 1.27182 3.89465e-05C1.43968 -0.00127661 1.60612 0.030748 1.76158 0.094277C1.91703 0.157806 2.0584 0.251632 2.17755 0.370238C2.29671 0.488844 2.39127 0.629887 2.45581 0.785335C2.52034 0.940784 2.55357 1.10754 2.55356 1.27593Z" fill="white"/>
<path d="M14.3073 1.27589C14.3073 1.61427 14.1733 1.93879 13.9348 2.17806C13.6963 2.41733 13.3728 2.55173 13.0355 2.55173C12.6982 2.55173 12.3747 2.41733 12.1362 2.17806C11.8977 1.93879 11.7637 1.61427 11.7637 1.27589C11.7637 0.937514 11.8977 0.612999 12.1362 0.373728C12.3747 0.134457 12.6982 0 13.0355 0C13.3728 0 13.6963 0.134457 13.9348 0.373728C14.1733 0.612999 14.3073 0.937514 14.3073 1.27589Z" fill="white"/>
<path d="M26.0426 1.27589C26.0426 1.61427 25.9086 1.93879 25.6701 2.17806C25.4316 2.41733 25.1081 2.55173 24.7708 2.55173C24.4335 2.55173 24.11 2.41733 23.8715 2.17806C23.633 1.93879 23.499 1.61427 23.499 1.27589C23.499 0.937514 23.633 0.612999 23.8715 0.373728C24.11 0.134457 24.4335 0 24.7708 0C25.1081 0 25.4316 0.134457 25.6701 0.373728C25.9086 0.612999 26.0426 0.937514 26.0426 1.27589Z" fill="white"/>
<path d="M37.787 1.27593C37.787 1.61431 37.653 1.93883 37.4145 2.1781C37.1759 2.41737 36.8524 2.55177 36.5151 2.55177C36.3473 2.55308 36.1808 2.52106 36.0254 2.45753C35.8699 2.394 35.7286 2.30023 35.6094 2.18163C35.4903 2.06302 35.3957 1.92192 35.3312 1.76647C35.2666 1.61102 35.2334 1.44432 35.2334 1.27593C35.2334 1.10754 35.2666 0.940784 35.3312 0.785335C35.3957 0.629887 35.4903 0.488844 35.6094 0.370238C35.7286 0.251632 35.8699 0.157806 36.0254 0.094277C36.1808 0.030748 36.3473 -0.00127661 36.5151 3.89465e-05C36.8524 3.89465e-05 37.1759 0.134496 37.4145 0.373767C37.653 0.613038 37.787 0.937553 37.787 1.27593Z" fill="white"/>
<path d="M49.5214 1.27593C49.5214 1.61431 49.3874 1.93883 49.1489 2.1781C48.9104 2.41737 48.5869 2.55177 48.2496 2.55177C47.9123 2.55177 47.5888 2.41737 47.3503 2.1781C47.1118 1.93883 46.9778 1.61431 46.9778 1.27593C46.9778 1.10754 47.011 0.940784 47.0755 0.785336C47.1401 0.629887 47.2346 0.488844 47.3538 0.370238C47.4729 0.251632 47.6143 0.157806 47.7698 0.094277C47.9252 0.030748 48.0917 -0.00127661 48.2595 3.89465e-05C48.5951 0.00266911 48.916 0.138248 49.1524 0.377234C49.3888 0.616221 49.5214 0.939273 49.5214 1.27593Z" fill="white"/>
<path d="M61.2655 1.27593C61.2655 1.44432 61.2323 1.61102 61.1677 1.76647C61.1032 1.92192 61.0086 2.06302 60.8895 2.18163C60.7703 2.30023 60.6289 2.394 60.4735 2.45753C60.318 2.52106 60.1516 2.55308 59.9837 2.55177C59.6464 2.55177 59.3229 2.41737 59.0844 2.1781C58.8459 1.93883 58.7119 1.61431 58.7119 1.27593C58.7119 0.937553 58.8459 0.613038 59.0844 0.373767C59.3229 0.134496 59.6464 3.89465e-05 59.9837 3.89465e-05C60.1516 -0.00127661 60.318 0.030748 60.4735 0.094277C60.6289 0.157806 60.7703 0.251632 60.8895 0.370238C61.0086 0.488844 61.1032 0.629887 61.1677 0.785335C61.2323 0.940784 61.2655 1.10754 61.2655 1.27593Z" fill="white"/>
<path d="M72.9997 1.27589C72.9997 1.61427 72.8657 1.93879 72.6272 2.17806C72.3887 2.41733 72.0652 2.55173 71.7279 2.55173C71.3906 2.55173 71.0671 2.41733 70.8286 2.17806C70.5901 1.93879 70.4561 1.61427 70.4561 1.27589C70.4561 0.937514 70.5901 0.612999 70.8286 0.373728C71.0671 0.134457 71.3906 0 71.7279 0C72.0652 0 72.3887 0.134457 72.6272 0.373728C72.8657 0.612999 72.9997 0.937514 72.9997 1.27589Z" fill="white"/>
</g>
</svg>
