<svg width="204" height="203" viewBox="0 0 204 203" fill="none" xmlns="http://www.w3.org/2000/svg">
<path style="mix-blend-mode:multiply" d="M146.174 157.374C177.813 133.532 184.195 88.6397 160.431 57.1028C136.666 25.566 91.7531 19.3275 60.1148 43.1687C28.4765 67.0098 22.0937 111.903 45.8584 143.439C69.6231 174.976 114.536 181.215 146.174 157.374Z" fill="url(#paint0_radial_1283_5360)"/>
<g opacity="0.33">
<path d="M145.942 93.4371L145.214 90.4972C144.206 87.1699 144.168 87.0366 143.417 85.0611C142.362 82.4672 142.362 82.4672 141.717 81.1468L141.278 80.232C138.077 73.9938 133.884 68.3178 128.862 63.4245C125.673 60.4324 122.171 57.7922 118.416 55.549L116.776 54.6168C128.073 61.3157 142.764 80.9436 145.944 93.4729" fill="url(#paint1_linear_1283_5360)"/>
<path d="M146.719 115.103L147.052 112.36C147.341 109.634 147.429 106.89 147.315 104.151C147.303 103.787 147.258 103.396 147.21 102.984C145.915 92.8721 134.473 74.1723 121.648 61.1995C115.685 55.1776 110.484 51.4599 106.754 50.209C104.392 49.4968 101.283 48.7376 98.9158 48.2167L96.1956 47.7748C100.703 48.4151 107.763 53.0741 116.051 61.4679C131.41 76.9911 145.104 99.3761 146.674 111.511C146.848 112.701 146.863 113.909 146.719 115.103Z" fill="url(#paint2_linear_1283_5360)"/>
<path d="M140.334 134.429L141.985 131.08C142.781 129.234 143.774 126.704 144.439 124.783C144.903 123.034 144.988 121.207 144.688 119.424C142.921 105.718 127.421 80.3715 110.052 62.8119C99.7988 52.5229 91.2523 47.1524 86.2712 47.2929C84.2433 47.4381 81.5375 47.6457 79.5297 47.9004L75.8491 48.5559C81.0867 47.4621 91.0394 53.3054 103.037 65.4446C122.098 84.7191 139.09 112.493 141.049 127.499C141.448 130.55 141.178 132.846 140.36 134.397" fill="url(#paint3_linear_1283_5360)"/>
<path d="M127.592 150.609C128.64 149.594 130.089 148.266 131.101 147.204C132.257 145.885 133.805 144.158 134.915 142.761C136.186 141.13 136.626 138.481 136.137 134.713C134.131 118.783 116.108 89.4072 95.9685 69.051C82.5585 55.4848 71.5986 49.3664 66.3797 51.4802C64.769 52.1956 62.5922 53.0885 61.0374 53.9113C59.7597 54.6373 58.0355 55.5504 56.7857 56.3302C61.8324 53.1751 73.5861 59.4179 88.0857 74.0817C108.879 95.0411 127.374 125.357 129.48 141.736C130.046 146.168 129.362 149.126 127.604 150.624" fill="url(#paint4_linear_1283_5360)"/>
<path d="M109.736 161.661C111.179 161.021 113.122 160.217 114.532 159.516C115.941 158.816 117.924 157.683 119.327 156.825C121.508 155.455 122.441 152.348 121.805 147.407C119.706 131.037 101.165 100.743 80.4109 79.7536C65.2628 64.4448 53.1224 58.3189 48.4812 62.4766C46.6997 64.1928 44.3883 66.5326 42.7386 68.3738L41.1587 70.3243C45.169 65.147 57.349 70.944 72.7207 86.483C92.8717 106.855 110.844 136.245 112.889 152.145C113.583 157.478 112.383 160.612 109.73 161.653" fill="url(#paint5_linear_1283_5360)"/>
<path d="M89.8006 165.793C91.6351 165.656 94.1056 165.501 95.9459 165.273L100.221 164.544C103.295 163.896 104.737 160.867 104.025 155.311C102.097 140.28 85.0936 112.491 66.0123 93.2562C50.8402 77.9156 38.9517 72.6216 35.7237 78.7044C34.8318 80.6224 33.5933 83.1255 32.7911 85.063L31.619 88.3508C33.8692 81.3852 45.0872 85.9885 59.6546 100.676C77.0298 118.243 92.5382 143.584 94.291 157.288C95.0369 162.956 93.2981 165.723 89.8106 165.822" fill="url(#paint6_linear_1283_5360)"/>
<path d="M69.2874 162.837C71.4395 163.471 74.3414 164.237 76.5353 164.726L79.8518 165.279C83.7247 165.825 85.727 163.406 85.007 157.807C83.4488 145.687 69.7452 123.273 54.3855 107.749C40.7879 94.0007 30.4578 90.2607 29.3328 97.9732C29.1307 99.7949 28.8573 102.219 28.747 104.046C28.7281 105.48 28.6836 107.395 28.7226 108.823C28.8649 98.9113 39.5576 105.057 49.4315 114.959C69.1832 134.784 82.4791 164.122 71.3137 163.254C70.6157 163.164 69.9275 163.012 69.2575 162.798" fill="url(#paint7_linear_1283_5360)"/>
<path d="M32.4913 126.28C31.3413 123.634 30.4524 120.883 29.8372 118.064C29.9014 118.563 30.0035 119.097 30.1315 119.648L30.8595 122.588C31.8669 125.915 31.9049 126.049 32.6621 128.032C33.7109 130.618 33.7109 130.618 34.3559 131.939L34.7953 132.853C33.7038 130.794 32.9362 128.578 32.5192 126.283" fill="url(#paint8_linear_1283_5360)"/>
<path d="M32.49 126.279C31.7961 120.847 36.8241 122.079 43.6907 129.052C50.5574 136.025 56.7185 146.058 57.4203 151.484C58.0821 156.642 53.5908 155.79 47.2493 149.73C50.2508 152.546 53.5318 155.05 57.0416 157.202L59.258 158.484C64.1454 161.205 66.9961 160.128 66.3603 154.989C65.3574 147.023 56.3316 132.309 46.2501 122.115C36.1686 111.921 28.8112 110.102 29.8359 118.063C30.4511 120.882 31.34 123.634 32.49 126.279Z" fill="url(#paint9_linear_1283_5360)"/>
<path d="M36.5273 133.627C36.8963 136.489 40.1605 141.766 43.7705 145.462C47.3804 149.158 50.045 149.791 49.684 146.924C49.3229 144.056 46.0449 138.777 42.4349 135.081C38.8249 131.385 36.1524 130.758 36.5273 133.627Z" fill="url(#paint10_linear_1283_5360)"/>
</g>
<path d="M135.284 71.14C131.863 66.5824 128.061 63.6603 126.791 64.6134C125.521 65.5665 127.265 70.0338 130.686 74.5914C134.106 79.149 137.909 82.0711 139.179 81.118C140.448 80.165 138.705 75.6976 135.284 71.14Z" fill="url(#paint11_linear_1283_5360)"/>
<path d="M109.716 58.1047C111.211 68.8135 125.551 89.3034 137.119 97.2564C139.712 99.0395 147.979 104.023 145.94 93.4374L145.212 90.4975C144.644 88.4337 144.508 88.0876 143.415 85.0614C142.862 83.647 142.804 83.5038 141.715 81.1471L141.276 80.2323C144.387 86.6834 143.731 88.8974 143.063 89.6371C139.461 93.5975 120.758 74.0527 118.622 61.5971C118.598 61.3661 118.571 61.0494 118.561 60.8203C118.52 58.36 120.343 56.052 127.346 62.0619C124.571 59.6023 121.57 57.4086 118.384 55.5095L116.744 54.5774C111.916 51.8863 109.056 52.9332 109.716 58.1047Z" fill="url(#paint12_linear_1283_5360)"/>
<path d="M147.318 105.12C147.341 104.8 147.341 104.479 147.319 104.159C147.328 104.502 147.318 104.821 147.318 105.12Z" fill="url(#paint13_linear_1283_5360)"/>
<path d="M105.908 49.999L106.778 50.2401C106.479 50.1419 106.197 50.0674 105.908 49.999Z" fill="url(#paint14_linear_1283_5360)"/>
<path d="M91.0694 55.2875C92.6216 67.3987 106.333 89.8075 121.685 105.337C135.277 119.078 145.599 122.824 146.73 115.119L147.063 112.376C147.328 109.969 147.416 107.546 147.325 105.127C147.041 112.679 138.191 109.792 126.374 97.8417C113.56 84.8849 102.124 66.193 100.803 56.0632C100.153 51.0212 102.152 49.079 105.895 49.9832C103.692 49.364 101.005 48.685 98.9269 48.2327L96.2066 47.7908C92.3517 47.2696 90.3674 49.7117 91.0694 55.2875Z" fill="url(#paint15_linear_1283_5360)"/>
<path d="M72.0519 57.7821C73.9791 72.8126 90.9829 100.602 110.064 119.837C125.236 135.177 137.125 140.471 140.353 134.388L142.003 131.039C142.832 129.169 143.759 126.651 144.458 124.742C144.225 125.388 143.893 125.995 143.476 126.541C134.44 136.626 87.1684 87.1805 81.8094 55.7865C80.9024 47.9483 84.4037 47.5026 86.2899 47.2524C84.2679 47.3557 81.5741 47.6289 79.5483 47.8598L75.8678 48.5154C72.8114 49.2363 71.34 52.2263 72.0519 57.7821Z" fill="url(#paint16_linear_1283_5360)"/>
<path d="M54.2792 65.694C56.3789 82.0646 74.9119 112.365 95.6735 133.348C110.818 148.635 122.924 154.749 127.591 150.609C128.683 149.637 130.05 148.233 131.1 147.205C132.332 145.953 133.774 144.118 134.914 142.761C130.903 147.939 118.723 142.142 103.352 126.603C83.2008 106.231 65.2208 76.847 63.1753 60.9463C62.4954 55.6155 63.6896 52.4731 66.3429 51.433C64.7043 52.0947 62.6033 53.1048 61.0006 53.864C59.695 54.5364 58.0206 55.5489 56.749 56.283C54.5644 57.6301 53.6315 60.7376 54.2792 65.694Z" fill="url(#paint17_linear_1283_5360)"/>
<path d="M88.0282 139.059C67.2347 118.1 48.7396 87.7839 46.6339 71.4053C46.0604 66.9786 46.7522 64.0154 48.4799 62.4767C46.6865 64.177 44.405 66.5566 42.7373 68.3739L41.1574 70.3245C39.8864 71.955 39.4058 74.6345 39.9269 78.378C41.9725 94.2786 59.9645 123.678 80.1035 144.034C93.5135 157.6 104.473 163.719 109.722 161.645C111.186 161.065 113.081 160.148 114.518 159.501C115.956 158.854 117.875 157.619 119.314 156.809C114.297 160.004 102.528 153.723 88.0282 139.059Z" fill="url(#paint18_linear_1283_5360)"/>
<path d="M35.0408 85.5611C34.3059 86.8748 33.6249 88.2103 33.0496 89.5533C33.6548 88.2002 34.3358 86.8647 35.0408 85.5611C34.5813 81.634 35.1346 80.1955 35.7376 78.6571C34.7878 80.5315 33.6471 83.098 32.805 85.0158L31.6329 88.3035C31.1684 90.0526 31.0834 91.8795 31.3835 93.6617C33.1443 107.36 48.6587 132.709 66.0199 150.274C76.2729 160.563 84.8195 165.934 89.8006 165.793C91.6191 165.669 94.1055 165.452 95.9459 165.274L100.221 164.544C83.2289 166.908 39.9872 114.5 35.0408 85.5611Z" fill="url(#paint19_linear_1283_5360)"/>
<path d="M29.3972 101.575C29.2266 100.39 29.211 99.187 29.3507 97.9969C29.1067 99.8128 28.9171 102.248 28.7649 104.07C28.7101 105.506 28.7693 107.393 28.7404 108.847L28.855 110.094C30.1505 120.206 41.5922 138.906 54.4175 151.879C60.3682 157.885 65.5615 161.608 69.2993 162.853C71.4434 163.492 74.3553 164.238 76.5471 164.742L79.8637 165.295C75.3486 164.661 68.2962 159.996 60.0386 151.642C44.661 136.095 30.9494 113.686 29.3972 101.575Z" fill="url(#paint20_linear_1283_5360)"/>
<path d="M30.1285 119.648L30.8565 122.588C31.4243 124.652 31.5602 124.998 32.6591 128.032C33.2065 129.439 33.2644 129.582 34.3529 131.939L34.7923 132.853C37.7927 138.686 41.6506 144.035 46.2379 148.722C46.5931 149.077 46.9482 149.433 47.2755 149.734C50.2773 152.55 53.5583 155.053 57.0678 157.206L59.2842 158.489C55.8576 156.399 52.7284 153.858 49.9803 150.935C40.4995 141.373 32.0009 127.855 30.1285 119.648Z" fill="url(#paint21_linear_1283_5360)"/>
<defs>
<radialGradient id="paint0_radial_1283_5360" cx="0" cy="0" r="1" gradientUnits="userSpaceOnUse" gradientTransform="translate(103.145 100.271) rotate(-37) scale(71.7301 71.5)">
<stop stop-color="#000046"/>
<stop offset="0.04" stop-color="#0D0D4F"/>
<stop offset="0.25" stop-color="#555584"/>
<stop offset="0.45" stop-color="#9292B0"/>
<stop offset="0.63" stop-color="#C1C1D2"/>
<stop offset="0.78" stop-color="#E3E3EB"/>
<stop offset="0.91" stop-color="#F8F8FA"/>
<stop offset="1" stop-color="white"/>
</radialGradient>
<linearGradient id="paint1_linear_1283_5360" x1="118.775" y1="53.0732" x2="148.014" y2="91.8752" gradientUnits="userSpaceOnUse">
<stop stop-color="#000046"/>
<stop offset="1" stop-color="#7F00FF"/>
</linearGradient>
<linearGradient id="paint2_linear_1283_5360" x1="101.447" y1="43.8798" x2="152.076" y2="111.066" gradientUnits="userSpaceOnUse">
<stop stop-color="#000046"/>
<stop offset="1" stop-color="#7F00FF"/>
</linearGradient>
<linearGradient id="paint3_linear_1283_5360" x1="83.805" y1="42.5607" x2="148.434" y2="128.326" gradientUnits="userSpaceOnUse">
<stop stop-color="#000046"/>
<stop offset="1" stop-color="#7F00FF"/>
</linearGradient>
<linearGradient id="paint4_linear_1283_5360" x1="66.7406" y1="48.7415" x2="137.746" y2="142.969" gradientUnits="userSpaceOnUse">
<stop stop-color="#000046"/>
<stop offset="1" stop-color="#7F00FF"/>
</linearGradient>
<linearGradient id="paint5_linear_1283_5360" x1="50.8528" y1="60.6645" x2="121.883" y2="154.924" gradientUnits="userSpaceOnUse">
<stop stop-color="#000046"/>
<stop offset="1" stop-color="#7F00FF"/>
</linearGradient>
<linearGradient id="paint6_linear_1283_5360" x1="38.5354" y1="76.0001" x2="103.703" y2="162.48" gradientUnits="userSpaceOnUse">
<stop stop-color="#000046"/>
<stop offset="1" stop-color="#7F00FF"/>
</linearGradient>
<linearGradient id="paint7_linear_1283_5360" x1="31.6752" y1="94.2645" x2="84.2199" y2="163.994" gradientUnits="userSpaceOnUse">
<stop stop-color="#000046"/>
<stop offset="1" stop-color="#7F00FF"/>
</linearGradient>
<linearGradient id="paint8_linear_1283_5360" x1="27.8602" y1="119.553" x2="36.7524" y2="131.354" gradientUnits="userSpaceOnUse">
<stop stop-color="#000046"/>
<stop offset="1" stop-color="#7F00FF"/>
</linearGradient>
<linearGradient id="paint9_linear_1283_5360" x1="30.5886" y1="113.821" x2="65.0974" y2="159.616" gradientUnits="userSpaceOnUse">
<stop stop-color="#000046"/>
<stop offset="1" stop-color="#7F00FF"/>
</linearGradient>
<linearGradient id="paint10_linear_1283_5360" x1="36.8812" y1="132.04" x2="49.3063" y2="148.529" gradientUnits="userSpaceOnUse">
<stop stop-color="#000046"/>
<stop offset="1" stop-color="#7F00FF"/>
</linearGradient>
<linearGradient id="paint11_linear_1283_5360" x1="127.814" y1="62.3381" x2="139.024" y2="85.0442" gradientUnits="userSpaceOnUse">
<stop stop-color="#E100FF"/>
<stop offset="1" stop-color="#000046"/>
</linearGradient>
<linearGradient id="paint12_linear_1283_5360" x1="110.891" y1="53.5438" x2="145.388" y2="99.3227" gradientUnits="userSpaceOnUse">
<stop stop-color="#E100FF"/>
<stop offset="1" stop-color="#000046"/>
</linearGradient>
<linearGradient id="paint13_linear_1283_5360" x1="147.094" y1="104.342" x2="147.555" y2="104.953" gradientUnits="userSpaceOnUse">
<stop stop-color="#E100FF"/>
<stop offset="1" stop-color="#000046"/>
</linearGradient>
<linearGradient id="paint14_linear_1283_5360" x1="106.123" y1="49.8365" x2="106.554" y2="50.4087" gradientUnits="userSpaceOnUse">
<stop stop-color="#E100FF"/>
<stop offset="1" stop-color="#000046"/>
</linearGradient>
<linearGradient id="paint15_linear_1283_5360" x1="91.6413" y1="49.2626" x2="144.18" y2="118.984" gradientUnits="userSpaceOnUse">
<stop stop-color="#E100FF"/>
<stop offset="1" stop-color="#000046"/>
</linearGradient>
<linearGradient id="paint16_linear_1283_5360" x1="72.3677" y1="50.6047" x2="137.541" y2="137.093" gradientUnits="userSpaceOnUse">
<stop stop-color="#E100FF"/>
<stop offset="1" stop-color="#000046"/>
</linearGradient>
<linearGradient id="paint17_linear_1283_5360" x1="54.1959" y1="58.1694" x2="125.22" y2="152.421" gradientUnits="userSpaceOnUse">
<stop stop-color="#E100FF"/>
<stop offset="1" stop-color="#000046"/>
</linearGradient>
<linearGradient id="paint18_linear_1283_5360" x1="38.3316" y1="70.124" x2="109.337" y2="164.352" gradientUnits="userSpaceOnUse">
<stop stop-color="#E100FF"/>
<stop offset="1" stop-color="#000046"/>
</linearGradient>
<linearGradient id="paint19_linear_1283_5360" x1="27.6442" y1="84.7685" x2="92.2667" y2="170.525" gradientUnits="userSpaceOnUse">
<stop stop-color="#E100FF"/>
<stop offset="1" stop-color="#000046"/>
</linearGradient>
<linearGradient id="paint20_linear_1283_5360" x1="23.9935" y1="102.034" x2="74.6221" y2="169.22" gradientUnits="userSpaceOnUse">
<stop stop-color="#E100FF"/>
<stop offset="1" stop-color="#000046"/>
</linearGradient>
<linearGradient id="paint21_linear_1283_5360" x1="28.0558" y1="121.21" x2="57.2713" y2="159.98" gradientUnits="userSpaceOnUse">
<stop stop-color="#E100FF"/>
<stop offset="1" stop-color="#000046"/>
</linearGradient>
</defs>
</svg>
