<svg width="72" height="144" viewBox="0 0 72 144" fill="none" xmlns="http://www.w3.org/2000/svg">
<path d="M72 143C111.212 143 143 111.212 143 72C143 32.7878 111.212 1 72 1C32.7878 1 1 32.7878 1 72C1 111.212 32.7878 143 72 143Z" stroke="#21243C" stroke-opacity="0.15" stroke-width="2" stroke-miterlimit="10"/>
<path d="M71.9999 131.166C104.677 131.166 131.167 104.677 131.167 71.9997C131.167 39.3228 104.677 12.833 71.9999 12.833C39.3231 12.833 12.8333 39.3228 12.8333 71.9997C12.8333 104.677 39.3231 131.166 71.9999 131.166Z" stroke="#21243C" stroke-opacity="0.15" stroke-width="2" stroke-miterlimit="10"/>
<path d="M72.0001 119.334C98.1416 119.334 119.333 98.1418 119.333 72.0003C119.333 45.8588 98.1416 24.667 72.0001 24.667C45.8586 24.667 24.6667 45.8588 24.6667 72.0003C24.6667 98.1418 45.8586 119.334 72.0001 119.334Z" stroke="#21243C" stroke-opacity="0.15" stroke-width="2" stroke-miterlimit="10"/>
<path d="M72 107.5C91.6061 107.5 107.5 91.6061 107.5 72C107.5 52.3939 91.6061 36.5 72 36.5C52.3939 36.5 36.5 52.3939 36.5 72C36.5 91.6061 52.3939 107.5 72 107.5Z" stroke="#21243C" stroke-opacity="0.15" stroke-width="2" stroke-miterlimit="10"/>
<path d="M71.9999 95.6663C85.0707 95.6663 95.6666 85.0704 95.6666 71.9997C95.6666 58.9289 85.0707 48.333 71.9999 48.333C58.9292 48.333 48.3333 58.9289 48.3333 71.9997C48.3333 85.0704 58.9292 95.6663 71.9999 95.6663Z" stroke="#21243C" stroke-opacity="0.15" stroke-width="2" stroke-miterlimit="10"/>
<path d="M72.0001 83.8337C78.5354 83.8337 83.8334 78.5357 83.8334 72.0003C83.8334 65.465 78.5354 60.167 72.0001 60.167C65.4647 60.167 60.1667 65.465 60.1667 72.0003C60.1667 78.5357 65.4647 83.8337 72.0001 83.8337Z" stroke="#21243C" stroke-opacity="0.15" stroke-width="2" stroke-miterlimit="10"/>
</svg>
